<mxfile host="app.diagrams.net" modified="2023-10-15T19:18:24.311Z" agent="Mozilla/5.0 (Windows NT 10.0; Win64; x64) AppleWebKit/537.36 (KHTML, like Gecko) Chrome/117.0.0.0 Safari/537.36" etag="UPpblpN5XKUTn_Ix6v3C" version="22.0.4" type="device" pages="2">
  <diagram name="Page-1" id="GEVMjSzeOnDsiKtzWXQB">
    <mxGraphModel dx="1034" dy="432" grid="1" gridSize="10" guides="1" tooltips="1" connect="1" arrows="1" fold="1" page="1" pageScale="1" pageWidth="1500" pageHeight="900" math="0" shadow="0">
      <root>
        <mxCell id="0" />
        <mxCell id="1" parent="0" />
      </root>
    </mxGraphModel>
  </diagram>
  <diagram id="Pa7tXugIDvqL6M02H_K-" name="Page-2">
    <mxGraphModel dx="1985" dy="995" grid="1" gridSize="10" guides="1" tooltips="1" connect="1" arrows="1" fold="1" page="1" pageScale="1" pageWidth="1500" pageHeight="900" math="0" shadow="0">
      <root>
        <mxCell id="0" />
        <mxCell id="1" parent="0" />
        <mxCell id="pp0nRFBPgVXfBRocRRxw-26" value="" style="rounded=1;whiteSpace=wrap;html=1;strokeColor=none;fillColor=#FFFFFF;gradientColor=#A9C4EB;opacity=80;fontFamily=Lucida Console;" vertex="1" parent="1">
          <mxGeometry x="356" y="56" width="890" height="410" as="geometry" />
        </mxCell>
        <mxCell id="pp0nRFBPgVXfBRocRRxw-58" style="edgeStyle=orthogonalEdgeStyle;rounded=0;orthogonalLoop=1;jettySize=auto;html=1;" edge="1" parent="1" source="pp0nRFBPgVXfBRocRRxw-17" target="pp0nRFBPgVXfBRocRRxw-28">
          <mxGeometry relative="1" as="geometry" />
        </mxCell>
        <mxCell id="pp0nRFBPgVXfBRocRRxw-70" value="Data Load Module" style="edgeLabel;html=1;align=center;verticalAlign=middle;resizable=0;points=[];" vertex="1" connectable="0" parent="pp0nRFBPgVXfBRocRRxw-58">
          <mxGeometry x="0.1356" y="4" relative="1" as="geometry">
            <mxPoint as="offset" />
          </mxGeometry>
        </mxCell>
        <mxCell id="pp0nRFBPgVXfBRocRRxw-60" style="edgeStyle=orthogonalEdgeStyle;rounded=0;orthogonalLoop=1;jettySize=auto;html=1;" edge="1" parent="1" source="pp0nRFBPgVXfBRocRRxw-17" target="pp0nRFBPgVXfBRocRRxw-47">
          <mxGeometry relative="1" as="geometry" />
        </mxCell>
        <mxCell id="pp0nRFBPgVXfBRocRRxw-71" value="Transformations Module" style="edgeLabel;html=1;align=center;verticalAlign=middle;resizable=0;points=[];" vertex="1" connectable="0" parent="pp0nRFBPgVXfBRocRRxw-60">
          <mxGeometry x="-0.7229" y="1" relative="1" as="geometry">
            <mxPoint as="offset" />
          </mxGeometry>
        </mxCell>
        <mxCell id="pp0nRFBPgVXfBRocRRxw-62" style="edgeStyle=orthogonalEdgeStyle;rounded=0;orthogonalLoop=1;jettySize=auto;html=1;" edge="1" parent="1" source="pp0nRFBPgVXfBRocRRxw-17" target="pp0nRFBPgVXfBRocRRxw-37">
          <mxGeometry relative="1" as="geometry" />
        </mxCell>
        <mxCell id="pp0nRFBPgVXfBRocRRxw-72" value="Data Persist Module" style="edgeLabel;html=1;align=center;verticalAlign=middle;resizable=0;points=[];" vertex="1" connectable="0" parent="pp0nRFBPgVXfBRocRRxw-62">
          <mxGeometry x="0.2226" y="3" relative="1" as="geometry">
            <mxPoint y="-1" as="offset" />
          </mxGeometry>
        </mxCell>
        <mxCell id="pp0nRFBPgVXfBRocRRxw-17" value="" style="rounded=1;whiteSpace=wrap;html=1;fillColor=default;gradientColor=#CFC4A5;gradientDirection=south;strokeColor=none;" vertex="1" parent="1">
          <mxGeometry x="697" y="513" width="208" height="251" as="geometry" />
        </mxCell>
        <mxCell id="pp0nRFBPgVXfBRocRRxw-36" style="edgeStyle=orthogonalEdgeStyle;rounded=0;orthogonalLoop=1;jettySize=auto;html=1;entryX=0;entryY=0.5;entryDx=0;entryDy=0;" edge="1" parent="1" source="pp0nRFBPgVXfBRocRRxw-14" target="pp0nRFBPgVXfBRocRRxw-28">
          <mxGeometry relative="1" as="geometry" />
        </mxCell>
        <mxCell id="pp0nRFBPgVXfBRocRRxw-14" value="" style="rounded=1;whiteSpace=wrap;html=1;fillColor=default;gradientColor=#0284C4;gradientDirection=south;strokeColor=none;" vertex="1" parent="1">
          <mxGeometry x="20" y="130" width="230" height="274" as="geometry" />
        </mxCell>
        <mxCell id="pp0nRFBPgVXfBRocRRxw-2" value="" style="shape=image;verticalLabelPosition=bottom;labelBackgroundColor=default;verticalAlign=top;aspect=fixed;imageAspect=0;image=https://upload.wikimedia.org/wikipedia/commons/d/de/AirflowLogo.png;" vertex="1" parent="1">
          <mxGeometry x="711.48" y="56" width="181.04" height="70" as="geometry" />
        </mxCell>
        <mxCell id="pp0nRFBPgVXfBRocRRxw-4" value="API Server" style="shape=image;verticalLabelPosition=bottom;labelBackgroundColor=none;verticalAlign=top;aspect=fixed;imageAspect=0;image=https://cdn.icon-icons.com/icons2/1852/PNG/512/iconfinder-cloudserver-4417106_116641.png;fontSize=22;strokeWidth=4;" vertex="1" parent="1">
          <mxGeometry x="85" y="160" width="104" height="104" as="geometry" />
        </mxCell>
        <mxCell id="pp0nRFBPgVXfBRocRRxw-6" value="" style="shape=image;verticalLabelPosition=bottom;labelBackgroundColor=default;verticalAlign=top;aspect=fixed;imageAspect=0;image=https://upload.wikimedia.org/wikipedia/commons/thumb/3/3c/Flask_logo.svg/1280px-Flask_logo.svg.png;" vertex="1" parent="1">
          <mxGeometry x="50" y="319" width="153.2" height="60" as="geometry" />
        </mxCell>
        <mxCell id="pp0nRFBPgVXfBRocRRxw-13" value="Customizable Modules" style="shape=image;verticalLabelPosition=bottom;labelBackgroundColor=none;verticalAlign=top;aspect=fixed;imageAspect=0;image=https://cdn-icons-png.flaticon.com/512/2002/2002051.png;fontSize=17;strokeWidth=0;" vertex="1" parent="1">
          <mxGeometry x="744" y="513" width="111" height="111" as="geometry" />
        </mxCell>
        <mxCell id="pp0nRFBPgVXfBRocRRxw-16" value="" style="shape=image;verticalLabelPosition=bottom;labelBackgroundColor=default;verticalAlign=top;aspect=fixed;imageAspect=0;image=https://cdn-icons-png.flaticon.com/512/5968/5968350.png;" vertex="1" parent="1">
          <mxGeometry x="767.5" y="673" width="67" height="67" as="geometry" />
        </mxCell>
        <mxCell id="pp0nRFBPgVXfBRocRRxw-22" value="" style="rounded=1;whiteSpace=wrap;html=1;fillColor=default;gradientColor=#009485;gradientDirection=south;strokeColor=none;" vertex="1" parent="1">
          <mxGeometry x="1370" y="125" width="230" height="284" as="geometry" />
        </mxCell>
        <mxCell id="pp0nRFBPgVXfBRocRRxw-23" value="Database" style="shape=image;verticalLabelPosition=bottom;labelBackgroundColor=none;verticalAlign=top;aspect=fixed;imageAspect=0;image=https://cdn-icons-png.flaticon.com/512/9850/9850774.png;fontSize=22;" vertex="1" parent="1">
          <mxGeometry x="1423" y="156" width="124" height="124" as="geometry" />
        </mxCell>
        <mxCell id="pp0nRFBPgVXfBRocRRxw-24" value="" style="shape=image;verticalLabelPosition=bottom;labelBackgroundColor=default;verticalAlign=top;aspect=fixed;imageAspect=0;image=data:image/png,iVBORw0KGgoAAAANSUhEUgAAA6wAAAEMCAYAAADAuDuDAAAAAXNSR0IArs4c6QAAAARnQU1BAACxjwv8YQUAAAAJcEhZcwAAFxEAABcRAcom8z8AAKs/SURBVHhe7Z0HdBNX1schm93NlmxN2STE1oxNk2ZM8rGbTXaTNZZk46LiXuk1NEuyKSHZrDcVsCXbEFJICL25AgYMpEF6I5tGyqaRsum9kgbz3Tt6ShxnAGk0kkby/Z1zj1w0d16bmfef9959/RKd7ue6f777hY5T2K8EQRAEQRAEQRAEoQ+mdE056eJbZ69YuWflCexPBEEQBEEQBEEQBBF7RnUUnDJt66SPl9zdaGV/IgiCIAiCIAiCIIjYc/Xey86ruW2m5OnybGB/IgiCIAiCIAiCIIjYc8Wef42ecdskqWJDxecNdzZw7M8EQRAEQRAEQRAEEVtmdE381/jdFVJpe6k0qWXKlezPBEEQBEEQBEEQBBE7JEk67sKt4x4e1VUsjekcLRWvKf3f+n3rT2L/JgiCIAiCIAiCIIjYcMWddeZxW8oPj+4sliZ1jJecmwqkmZtn1rJ/EwRBEARBEARBEET0wdHVGV2T7hi1vUga3VEsTe6cIGWvzpEq1lccaLmv5Q/sawRBEARBEARBEAQRXS7eVTtz/I4KqazVKY0CwTqhfayUddNIqbC1SJrZMdPDvkYQBEEQBEEQBEEQ0aPproa/Tuoa/VlFZ4FU3povVbYXSVUtZdLI5TlS7po8qXxdxaurH1z9R/Z1giAIgiAIgiAIgog8jXc2njala+yzVV2FslhFq2jLl0o25Es5y3Ol7JtzpIKWQmlq27R/s0MIgiAIgiAIgiAIIrLcdN9Nf5ixbeL9Y7pLpfIW53eCtbzVKVW2lkj2lU4pe3mOlLM6VyrdUPbBjQ8soX1ZCYIgCIIgCIIgiMjStKfJMGvn1DvHdZdJZT8Qq/lSaatDGtdRJRWsLpRGLs8G0ZorOVvypQmtE9aywwmCIAiCIAiCIAhCexruXjBi6rZxL+DIam+xKgvWFoc0ecsYqXhtsSxYc27OlXJW5EpFG4qli3ZcZGNuCIIgCIIgCIIgCEI7/nXrRWMndY3+AtesKolVv2C1S1O3jpNK1pV8L1jB8tbZpMqNVc9RACaCIAiCIAiCIAhCU2bvrJ47cXuVVLHZHw34SHYkwSoHYGotkCa3T17KXBIEQRAEQRAEQRCEeiRJ+knNjulN47srpIoOZZHa0/yCdaxUvPaHglUWrStzpKL1RYfqbvlnLnNPEARBEARBEARBEKGzf//+n3l2zViDwZXK25UFam/DNayTNo+Ritb0WMPaw3LX5kllG8vf+OfOfw5mpyEIgiAIgiAIgiCI4Hn77bd/Xbt7xuaxuG1Nm7I4VbIyEKzjO6ukgjUYJTjnR4IVpwbbNzqkqpbRjzXf1nwqOx1BEARBEARBEARBHJt9L976W/fOGTvH7SwHEaocXOlIVgbfH9NeJjlXs31YewlWWbTC33Grm/Gt4+9t2d/yB3ZagiAIgiAIgiAIgjgyew7s+Z17x7Tbxu4sk8Wnkig9llW0Fkj2VTZ5D1YlwYqGojUfvjehbeLtKJDZ6QmCIAiCIAiCIAjix9z64r7furqn3zp2l3qxilYBlr8m/6iCFQ2nB+NI6+T2KdtwCjJLBkEQBEEQBEEQBEF8zzPv3nOiu3vaznBGVgNW0VYolW4oOeKU4J6GojV/k7zdTYckSSew5BAEQRAEQRAEQRBEv36HDx/+uWfnjLZxGohVtEoQrJWbKoISrGiBkdYpHVPWgGj9KUsWQRAEQRAEQRAE0ZcBgdjf0z39JowGXNYWvlhFq2ovlMa2jlaMEnxEW5Er5bcUSFPap9wIaTqOJY8gCIIgCIIgCILoq9TunrVgXHe5VK6RWEWrai+SJrSPDU2wooFoLQDRemHblGaWPIIgCIIgCIIgCKIvMm+n2zWhu1Iqb1cWnmoNBevEjnGhC1a0lShaC6Wp7VOvYskkCIIgCIIgCIIg+hL/vvWSsonbRx2u6FAWneEYCtbJmyeoE6xoIFqLNhVL09un17LkEgRBEARBEARBEH2Bq+647O+Tto7+vGJzgaLgDNdQsE7ZPFG9YEVblSsVbyqR3B2zJrFkEwRBEARBEARBEInM4j0LB0zuGvNiVVehotjUwjQRrGggWks3lX1z0c5LSljyCYIgCIIgCIIgiERk/9v7fz1rx+Q7x2BEYA22rzmSaSZYwXLX5EllG8s/X7T3qgtYNgiCIAiCIAiCIIhEo2bn9OXjd1dEVKyioWCd1DleE8GKlrvOJpWvL3/1it1XcCwrBEEQBEEQBEEQRKIwZ7dn+vgdFZpuX3MkQ8GqOkrwEcy+0SmN3jjmkZvuu+kPLEsEQRAEQRAEQRBEvLPg7gUjJnWN+jJSQZZ6GwrW8Wr2YT2KZYOv/NYCaULrxO7Drx7+BcsaQRAEQRAEQRAEEa8s27fspCldY5+LZJCl3lbVXiiNba/SVLCiZd+cIxW0FkoXtl+4hGWPIAiCIAiCIAiCiEckSTrOtX1q+9idZRFft9rTULCOaavUXLCiZa/IkQo3FUozO2dOZtkkCIIgCIIgCIIg4o15O2tcE7ojH2Spt1W2FUiVLaXyNF4l0Rmu5a7Ok0o3lH15xa11I1hWCYIgCIIgCIIgiHhh4Z1XnjOpq+pgRWd01q32NBSs5ZuKIiZYc5bnSnnrbVLFpsrnr7nnmtNZlgmCIAiCIAiCIAi9c9+r9/1i+vYJD43aViSVtyiLykhaBQjWko35IFgVxKZGhutZHS1OacymMbdJkvQzlnWCIAiCIAiCIAhCz9R2z/SN3xX9qcABq2jLB8HqBGGZ9yOhqaWhaC1sK5KmtU1bwLJOEARBEARBEARB6JUFt9eZJ2yr/Lq8XVlMRsVAsJZtLJTyVthlUakkNjWzlblS0Ybib+Zun5vHioAgCIIgCIIgCILQG3ve3vPraV3jn5SnAisJyaiZU6poLZbsKx2RW8faw/LW2aTKTZWvNt/ffCorCoIgCIIgCIIgCEJP1Oyc1Th+V3nMpgIHDM9f1VoqOVfiOtbIC1Z5PesmpzS+deJmSZL6s+IgCIIgCIIgCIIg9MDCPVecP2Fb1VflHcoiMpqGgnVMe7mUv7ogInuxKhnuz1rUUizN2jzLzYqEIAiCIAiCIAiCiDWSJP10RtfEB0ZtL1YUkNE2FKzjOiqkwjWFUROssq3OlUo2lH6+YPflw1nREARBEARBEARBELHkol01syfsrIz5VOCAlbU6QLBWgWAtBsGarSwuI2T2DQ5p9MYx96CIZ8VDEARBEARBEARBxIKlj/hSJ20d/UHF5gJF8RgLK21xSBM6R0lFa6MvWNEKW4twavA8VkQEQRAEQRAEQRBELKjeduGGMTvLFIVjrAwF68TNo6XitSUxEaw4Nbh4femnC/YuEFkxEQRBEARBEARBENHkqjsus4zfWiGVt+tjKnDAULBO2jxGKllXImXFQrCCOTY6pdEbx94hSdJPWHERBEEQBEEQBEEQ0eC55577+bSuCftiv+fqj00PghW3uilsKZaqO6tdrMgIgiAIgiAIgiCIaHDR7topE3ZW6CbQUk9DwTp56xipdF2plHVTbASrbBg1eF3pR4tuWTSQFRtBEARBEARBEAQRSTofXP1HEIQHKrcWKgrGWJtuBOvyXMnRki9NaJ24gRUdQRAEQRAEQRAEEUlm76y+dPwufY6uopW22KUpW8dKZevLYitYwbJX5EiFG4oPXXrLpRZWfARBEARBEARBEEQkuPGBxQMmbB71vp62seltehKsaLb1dmnUpjH3SZJ0PCtGgiAIgiAIgiAIQms8O2Y0jttZrigU9WJ6E6z+AExFkqfLM5UVI0EQBEEQBEEQBKElNz90HT+xq+rDik5loagX05tgRctdkyeVrat4/bp7rzuFFSdBEARBEARBEAShFTU7Z1wzdmeZVN6iLBT1YnoUrGj5LQXS1PZpTaw4CYIgCIIgCIIgCC246b6lqZO6Rn9U0anftasB06tgzVmVK5VsLP3s8lsWiKxYCYIgCIIgCIIgiHCp2YlrV/U/uoqmW8EK5tjklMZtGreWFStBEARBEARBEAQRDmsfXztg0tZR78bD6CqabvZhVbKVuVLR+uKvFuxdcDYrXoIgCIIgCIIgCEIttTtn/RsjA+t139XepmvBCoajrOM3jd/EipcgCIIgCIIgCIJQw/pn1580aevo1yu2xMfoKpreBWv2yhypaF3Rt3W3XXkOK2aCIAiCIAiCIAgiVObu8sycsLNCURjq1VCwTtoyRipZVyJlLdefYEWT17K2jNvMipkgCIIgCIIgCIIIBUmSjr9wy9gnKrcWKgpDvZosWDfrW7Bmr8iVCtcVHb509/y/s+ImCIIgCIIgCIIgguXy2+sc47dVSOVt8bF2NWAoWCduHi0Vry2RRupUsObcnCM5NjqlsS3ju1hxEwRBEARBEARBEMEyY9ukrtHbixVFoZ4tPgQrjrLmSIVriw9decuVf2ZFThAEQRAEQRAEQRyLa+7zieM3V3xZ0aEsCvVsKFgnbK6SitYW6VqwouFa1gktE5ezYicIgiAIgiAIgiCORe3OGQvG74qfrWx6WhkIVhDbIFgLdS9Ys1flSMVrij9Zem9DMit6giAIgiAIgiAI4ki07m/99eQtow/E01Y2PS2eBCtafkuBNLV96uWs+AmCIAiCIAiCIIgj8c9b5peOk4MtKQtCvVu8CdbcNXlS2bry11r27/oDqwKCIAiCIAiCIAiiN5Ik9Z++fdLW0TtKFMVgPBhOYx7bUS4VrCkAwZqjKBL1ZNk350iFm4qkmZtdU1k1EARBEARBEARBEL1pvHsBP66z4svyjvhbuxqweBOsaLZ1dqlifeUjrfv3/4xVBUEQBEEQBEEQBNGTebs8teO6y0D4xbdgHdNRdjh/Tf7heBGs8ijrhiJp7va5eawqCIIgCIIgCIIgiACSJP30wq3j7h61rUhRCMaL+QVrqZS/2hk3I6xojo1OaezGsZ2sOgiCIAiCIAiCIIgAC/YuEMd3Vhwqb4/f0VU0FKyj20sk52qHlB1HghW3uClZW/pJ493X8axKCIIgCIIgCIIgCGTOLa7L/dOBlYVgPFlVW5HkWG2PK8GKlr+pQJrRPqOGVQlBEARBEARBEATx6quv/mLylrEPVm0rVBSA8WbxKlht6+1S5fqqhyVJOp5VDUEQBEEQBEEQRN/mqj11wvjNlYfL2uJ7OnDAKtsKJfsqW9wJ1uwVOVLh+qJD87rmnc+qhiAIgiAIgiAIom9z8a2188fuKFUUf/FoFW0FcSlY0TD40qS2SdexqiEIgiAIgiAIgui74PTTKVvG7Rm9vVhR/MWr2VblgWBVFoV6ttw1eVLJmtLXtj+x/fesigiCIAiCIAiCIPom1zzoHTRp66iDZXEeHbi3+UdYlUWhng33ZC1qKZZcW2sqWBURBEEQBEEQBEH0Tebf5pk4ZnviTAdGqwDzB11SFoV6Nwy+NHrT2G5WRQRBEARBEARBEH2TmV1T2sYk0PpVtIq2fCl/De7DqiwI9W65q/OkwjVFH9/w8A0prJoIgiAIgiAIgiD6Fnue3XPS+I7Klyq3JMZ2NgGraC2QClY741awytOCW4ulqe1TJ7KqIgiCIAiCIAiC6Ftccvu8f0zcXiWVtSbW+lWMEly4uuBwvApWtLz1dml828StrKoIgiAIgiAIgiD6FnN2u68cvb1EUfTFs6FgLVpbGLcjrGg4LbhodfG7ax5bcwqrLoIgCIIgCIIgiL7D1K1j70hYwbouvgUrTgsubimW3Ftqqlh1EQRBEARBEARB9A269nclje+oeKtic4Gi6ItnQ8Fasr44rgUrmn2jQxrfOn4VqzKCIAiCIAiCIIi+wfxdNZmTukcl3PpVNBSspetL4l6w4rTg0rVlb255ZsuJrNoIgiAIgiAIgiASn9qdM/85enuxouCLd0sUwZqzIlcqWF8oXdx9cQGrNoIgCIIgCIIgiMRn1vYpt4/aRoJV7+ZsyZfGbBy3lFUbQRAEQRAEQRBEYrPnwJ7fjWkvS7j9VwOGgrViY3lCCNac1blSxfqKl6HOTmDVRxAEQRAEQRAEkbhcc3/DiElbRx0ua0u89atoCSVYV+ZKjtXOQ1fddtUFrPoIgiAIgiAIgiASl+nbJlSN31mhKPYSwRJJsOL2NkVtxdKFbRdezKqPIAiCIAiCIAgicandNXNpoq5fRUPBWrkpQUZYwWwb7FLV+ooOSZL6syokCIIgCIIgCIJITKZ3TXy4amuRothLBKsEwTq6tSJhBGvOqlypfF3FOyv3rPwdq0KCIAiCIAiCIIjEo/PBzj+Oai/+X1WCBlxCSzjBuiJXcqxyHr70lkvTWTUSBEEQBEEQBEEkHtc9sMQ8YUvlt2XtiRlwCQ0F65jWqoQRrLiOtbCtSJq+efplrBoJgiAIgiAIgiASj5pds6om7R4llbUmumAdlTgjrGD2DQ7c3maLJEnHsaokCIIgCIIgCIJILKZsHXfxmO4SRaGXKJaIgjV7ZQ4I1sr3br7r5pNZVRIEQRAEQRAEQSQWNTtndVdtTdz1q2iJKFjldaxrnFLtjnlmVpUEQRAEQRDEUah351kb3bbRDe68Yq/L4fC6nCMb3XZzozvvguZa2198nrxhDbUO4+LZ2SneGueZzdX2U6+blvf7uuklv148K/vny6ZM+WldXfrxrSUlP6mrqzuurq7fcVK/fv1lk/r1x9/x7/L/09OPx+/iMbPgWJ+n+BcL51l/e82M/D+i38VzCwY0uZyGpR57Kp6zebY9zVudP7zBlftXSNPffbNs6Zg2b7U90+exZ/s8zlxIux3+5mxy2QsxD5BuyIetzOdxlKN5XfYKn8dWGbD6avyE/7kcJXic15U30ltjOx/P1VBbmLxojuNETCsrnj6Pt9p2PpRzZVOtLQfKL70B2kRDdZ4A5Z+K9QVt4GSw30C9nlBXV/KzKVOGy+2hpEd7kNsEtAVsE+BS/gz8PdA+8Pv+NuRvI7KfkpKfoU/03VA76ld4ngXQ9qC+TsL2Am3zjIbphckNtXauuTpvYJPLMbjJlT8U6tWE7dY7y3H24lpoP5hmNGhHvln2c78zT945+B25rVXbklg+jvfnXOdM3TrumUQOuIRW2VYojWsbnViCFaygpVCa0TljEatKgiAIgiAI4gg01OaNaK51fnPdvEJp8ex8qbnGKTV6HBJ0+A81uh3fwM8H4fMzn9v+CQiUD8Heg/+9DZ9vwN//B/Yy/O8FsGfAnoT//cfrsT8MIvFBrxvMBT/D7yAQH4H/PQEicb/PbXvW55KPeRn+9mqjx/46+HkT/cLnu/D5Pp4LPj8B+wzsCzj+S/jb13DMt/D7Ifj9MKazCdKLaYY8SCBM5DwsYXbNnIAVKJj/O3gc+kHfmE88d2ON438gePfD7zvh9xub3Y6L/GIXBU7xH1jR9Qkwz4trnZ9eC+2jqQbKCcof/nYQ7FMwqCPHu1AXb0E5QR3aX8U6hfp9Dj6fhvp/Aj4fhd8DbeJhbBPwtwfgu3LbgJ/3wSe2jf/A52Pw+5NgT4E9DfZfr9v2Ehz7iuzb43gNzvc/OO8bUGc/bC9uxwdyejyOj+B7H0ObgrYD7dbj+Bz+D+1HTjMYtqMf2edwrk/gmPfgO69j+4Rj7oC/r2qqzf9nfbV9VIPL8dfFddm/YcUSe1Y/fc0fq9qK3qzcTII1Hs2+0SGVrC3tliSJ3owRBEEQBEEcAXmE021/6PqLimTh11P8+QXg9yKwpxD0i8EfCsClaHODtF7Hoi1hArKnBc4rp0G279P2Awukm1kgL8FYIL9yXtl55fxAOlGkYdksm18sXQu/o7gBQfQaiO574NjGRndeVXO1PQ1HDlmRJhQ40tjgst1zw3x/+wiUd+8XA1h3Pevy2G2hUOFvCtbDZ29Tai8B+67doH3Xdo5h7Fj0jee9FtJ4XaDuoR1AvR8EEYsvWHY01jjnNricI1bWjT2BFVX0uXHfkgvGdpZ/Xd6uLPQSxRJVsGavypFGbRj9xs6nd57GqpQgCIIgCILoRWN13hQcWUUxgqOMZEc2LCMUNihoUMygkJXLziOPPD/aVOtsbnDb7IvnFydMHBXvTFsZCkcU9Upl0lcMR5a/q3uo8xtAxDbiaLPH/nRzrd23yJ13AZvqHD0W7KkbNWnHKKmsLXEjBKOhYB3fPibxBOuKHKl0bdk3l99y+UBWpQRBEARBEEQPcK2er9r2Xxw5VOqkkx3bmsBwZC4gYFHQgLh7CUTsmnp5Ta3zd6y44w5cT+pz5d19/UXy6CJZL8ORZhTz17PRZ5/HcV+j2z4F19eyIows07omTJ+4uzKht7RBS1TBmrsiT7KvtkvjNo37C6tSgiAIgiAIogfQuR6LQgtHj5Q65GShGwoXFK2yeMWRyVrnMyBqF/k8OSIr9rgBBPffcRQRhZlSXsm+NywjHG2/bl4RvrDA9a+zGkZl/ooVZWSYtHnUgkTf0gYNBeuEjrEJJ1jlSMHrnNKcHXMuZFVKEARBEARBMDAiq8/tuGXZxcWKHXCy8A1fBMgjcCBem2odX4CIaa9327JYFegen8feuPyfJbIYw5FkpTyS/dCwnOTRdnnNq31fgzs3jxWn9rh3TNtZ1ZXYAZfQElawguVvKpDc22oWsyolCIIgCIIgGHUu5+98Hsd+DCqDAXVwTR6OEKHAkoPWoEjRycgrpgNFUyAoTiAwTk/rGYAnEGhHFlo6WXuJ6UHhimkCIbjb58nLZVWhW5o89mZIM0YBPoxt44aLoY1AHlCQyWUO5UxiVtmwzWKZLal1Hlpc42ysm2L7JStWbZAkqX/19gufqthSoCjyEskSWbA6W/KlivVV61m1EgRBEARBEAwcYW1yOc+qr84r8LlsU0G8XtXotm8EMfUIdLjfgs+vUZgEIqSiQEFx0rtjHilDoYniOSCk5b/LW8443od0+rfUwa1wcAsStsUJfL4D/8P/f8Ki+cqiCgU5jiSjYAzkBUVtLAIJ4TkDwhV+34xbpbAq0R0NtZm/anLlDvVW2yw+V96YxhrnxVDGNze67Hu9btsBSD9uIQMilrUTaC8ozAN5jYQFplwHojcHXrb4rUj+GxoKa2w3mCb5Jcwc/4uMaL/EwBc/mDYQsPcscjkGs6INH2mPdPykLaNfTfQtbdASWbDa1tulwtWFeyRJio+NfwmCIAiCIGJMXV2/4zDKLa5f9LocE/zrL+27fW77a401jm9RFOCWJJEcfUVRgULT57E9DuKisd6VN7lxli2rHgR2w0w7d1W1/VSfJ+sPC+dZf4uGgY28NbaTGt0jT4OfDSBYTU0gBBvdtiz4udRXnTez0e28DMTtzeDzdh+ILYzsi+IxIHICgjxao8ryueG8kL/Pm2vs9VfPsPyRVUFc4POc+wtoF6k4xRlfeDTXOBbC73dB+R3sIcg1NfSJ5vXYX/S57LfC+db4PI4lUMf1jW7HQvhc7HM7VoKYXgvtdRP8vhW+swf3goVj8AXHJ/D/w/KLmIv9L2KwnUVDwF4PohXq/KWGaps28XXq9tSdUNlW9FZfEayTOsaDYM1RFH3xbLi1TeWGqv/d8sotp7OqJQiCIAiCIFQgRxT22NJBDNRBB/xx7PRjZ793xzxcQyG3eI4sVufU1ZX8jJ1eU5ZNsf1yUXXeQBBXDhC1F8HnehCxL8Dn1zgqh4ILR+OiIV7xPCial9Q690Na7CyJcQmO2jfOsf0fiMSbm/ClA9SjUp7VGNYFtjevy1YT4vTa/tiOFs1xnAhlneIfLbZN9cl76Nr3grD9MDAKjy8tIlnnTMi/sWiG488sbepZfE99SlVb0eeVnX1jSnDCCtYVIFjXV35x7f3XDmVVSxAEQRAEQYSJx3PuL5pq7NOaax3v4XRLpc65WkPBCKJ4NTtV1Fg0AQRNbf5wX7W9ttnj2Ayi60Pc7kcWrxGe5oqG+ZbXDXvszSiuWLLiFq/bUQXl9jkKcqX8hmo4Gur12O9i7jVB3rZnat4ZPo+jHEU2CNjX8EUMnitSo64YRRg+X66flZ/CkqGOxff50sduLpfK25VFXiJZogvWknWlUk13zdmsagmCIAiCIAiN8NbYzgfR+j6OTPXumKsxeUqux/FNozsn/BGoMPHWOM9srHFOgnRtA5OnuWqVzyNZYL1jc43znoZZ2UaWlLjF67JdgkJci6BMWP4Nrrz5zHVEuGpW9skgXidDeu+V18mCeFVKS7iGo7lwnntwjTA7degsuPOyoondo6SytsTegxVNFqydiSlY5a1t1jqlgrUFtBcrQRAEQRBEBPBW503BUVYtRqRwNM7ntn/SXG0/lbnXBc21BQKImKtwDSIG89F6VLm3+Ud1HW8sqrbbWBLikoXzSn4L9flKuEIf2xaum8apvMx1RKkrKflZo9tR1VTjeOJ6EJf4IkEpXeEYvpior86rZ6cMndk7a8ZN2g2CtbUPCNb2Qmny5gkJK1hta+3SlM4phaxqCYIgCIIgCA2pKzH+DITEk1qIOHmNosf+wdUX6TMAUUNt5inNtQ4PCJnnUMhEcsQVR/eaap1fe932Kez0cUmj274Cowgr5TFYQ8GKZe3z2Ccyt1Ghblb2bxpnO65eUpv/jdYvKXCa+eIa51eQp3PZ6UJj2tbxEyfuriTBmgDmWO+UanfURnT6AEEQBEEQRF+m0e28Eqc5KnXMQzFZsLrtby6Ylvd75lqX1NXYTgLReklzrfMdzDcGilLKT7iGIu2a2QVSg8s2h5067vB5bNNxxFgpf8EaClZsGw3VeWOZ26jiq3YUNHsc7+L0ZqX0qTV86eF15e2W+vXrz04VPFUdxVPH7SpTFHiJZokuWJ0b8yXPNs9SVrUEQRAEQRCExnhdtnz/tGDljnmwJo9YuuwvY0Ri5lrXXO2xp4JoXYdiKlLThP2+C0G0Ov7JThtXgCBzyEGMFPIWrAUEK07TZW6jDm5H01zreFVL0YprtnGk1VvjtLDTBM+UreMuG72jWFHgJZqhYJ26eWLiCtZN+dLktqmbWNUSBEEQBEEQGuPF6Lpu+8Fwo+nK0z7d9hcwYi9zHRd4a+wVTbX2V3EkUYu1vL0NyxUFsS/CQYciQXO104LpD6dc8Fh5fbPHUc7cxgS/aHW+q+XLCdyL1+uxt7FTBE/NzhlrK7cm/pY2aH1BsI7aWLmVVS1BEARBEAShMY3uPL7R7XhbHgVT6JQHa/IIq9vxTFjRU2NEQ21ucmONsxODMmm1lUtPQ9GH5eN122awU8YFuHcvjq6GM20aj8XRSPBVxNzGDJxNsLjWeQjTo5TWUA2vGZ/b9smSWjvHThEcc3e5bi/vTPz1q2h9QbCWrCndxqqWIAiCIAiC0JjFs7IHNLrtr8uCU6FTHqyxEdanlk2x/ZK5ji+kfv29bvulILAOLw2zLJQMxQ3YV/XVsRduweKttp0PdSoLTqU8BWOyYAXzVecVMLcxxevOWxzuutyAoZjHoFRel30acx8cIFifLGt3KAq8RLNEF6yOTU7JfrN9B6tagiAIgiAIQmNwGxqfy/5quIIVp1p6XbYnfJ5zf8FcxyX1rrySxbOd72sdpAcN17M21zo+XDQj9nvVBkO92/53EKxhjUiiWMVpwbgelrmNKdddlPf7RrfjJa1eSsj7srodrcx9cMzeOeul0jYSrIlg9g0OybbSdjurWoIgCIIgCEJjfJ6sP0CHO+wOvLxO021/tG5s+gnMddxS77Kdt7jG+Uq4W7oo2XXz5NG9Z/S2X60S9bPzz4M6/SYswQrH4kikrzovl7mNOV63fZZWLyTkqd4e24G66em/Zu6PTW33zFdJsCaG5a23S4Wrix6SJOl4Vr0EQRAEQRCEhmBU30a34/lwg9HIx7sd+8Dfz5nruGbBjBwRhNZLWk0f7WnL5hdLXrejHU4T+pYoUQT3GdVCsMo/u21ZzG3MWSCPsuKsgvDXK2P+oJy+bq62pzH3x8bTPf0tEqyJYblr86SStSVPH/jwwO9Y9RIEQRAEQRAasqY281fQef9v+IK1EESJ/cG6upKfMddxD+THBHnTfKQVp8jiCN+i6jwXO5UuaXDl/hXF2GJNBKvDytzqAp/L3ox7qfZOb6gWCCrV4M4rZq6PjWvHhe+XtvYdwTolgQVrzppcqWxd+St3vnznaax6CYIgCIIgCA3xeYp/AaLkWS0EK/h5IJEEK+Kd5Ti7yWN/59owy6e34egeCJ2PfZ68YexUukMrwerzOA6D+Dczt7rAW23PXFLrPBTOlj1ouH8xvnzwumw1zPWxmbV9yid9SbBO7pyQuIJ1NQjW9eVvdL3YlcSqlyAIgiAIgtAQnMILouTpcAXrtSBYvW7H/cumTPkpc50wNM7Ms4Jo+2LJbG1FKwbsaXTZ7qirS9fl8jfNRljdjkNNtc4RzK0uwOBLWgQbQ8Mp3o1u29XM9bGZvn3iF31GsLYVShM6xoFgVRB7iWAoWNdVvL7r+V1nsuolCIIgCIIgNAQFps9tf0qe0qvQGQ/WULCCn3v1Kr7CxeeyTb12Dkb5DW9ErqcFpgajb3YaXdFcbfsL1OlX4Y+w2r9tdOddwNzqhga3fde1GgRfWnYxCNYaxzXM7bGZsX3S531HsBZI49tHJbZgXV/+2m2v3nYGq16CIAiCIAhCQ1Bg+jyO/Sg4lTrjwZosWD2OexJVsCINLtsyeVRUIf9qDUe2fS77G43ukbpbAqeVYG10O75pdNv/ztzqBkhT/XUaBNW6QR5htd/I3B6b6h1TP+xLgnVMW0VCC9bydRWv3vLKPaez6iUIgiAIgiA0pKSk5CcgNJ8MW7DiSKHHflcr+GOuE45FcxwngoB7VOsgTP69PO0+dhrdoOGU4G/Az7nMrW7weZxTtYgCjYLV67YtZ26PjWfnjDf7TJRgEKyVLSWJK1jXyIL1wJ4DD/6JVS9BEARBEAShIXV1dcc1uu1PaCFYQZjsTWTBinhn5f4NBNzBxbPD3xIlYEv8vj5tcjkGs9PoAi0FK+Ttr8ytboB278R2i4GTlNIerOGUYJ/LvpS5PTZ9aR/WChCs5ZsKE1qwlq0rf+n+F+/X/cbKBEEQBEEQ8Qp0uh/XaIR1Dwpg5jZhaXDZF2ixJUpPk0dZPfbr2Sl0gRaCFY9FHzi9mLnVDSBYzSiocWsapbQHa8suhrpz2S5nbo/N7J2znivrM4I1XyrZ6JSylcReIhgTrHv276ERVoIgCIIgiAjhI8EaEotnZf8G8vpsuGXW0/yjrPZPm6vzBrLTxBzI47k+t/0beZRUIc3BmCxY3favGt22/2NudYO32nY+pO1wOPnDwFkYadjnypvM3B6bObtcT5R19A3BWg6CtXRjvpR7cx6I1sTb2iZ3bZ5Uuq70qRc/ePG3rHoJgiAIgiAIjWl0Ox7TRLC6HLdLUr/+zG1C43XZKzCycrj7ePY0HGX1uu317BQxR0vB6q1xnM3c6gZvjfNvkMdvw8kfHouiF8Uvc3ts5uxy7ynvVBB3iWggWMs3FUm2FY6EFKz29Q7JsdJ5tyRJfeLGRxAEQRAEEQu0Eqzg57a+IlhxJLnBZb9LywBMS+cUSF6X43/eGttJ7DQxRRvBmi/5PI4vfZ68YcytbsCtdhrDHGHFkXGvx/7mgovyfs/cHpvq7mk3VG0rVBZ4CWdOqbK1RHKsckrZyxNPsDo2OqW8FfZuVrUEQRAEQRBEBCDBqo4mly0HBMthLUdZsRxBtE5gp4gp9S7beVoIVmgXB30ep8jc6gZvTd7IJXPywxolxyjDPrejg7kMjtEdpe6xO0sVxF3iWRkI1lFtZVL+6gJpZAIKVuemfKl0Tek2VrUEQRAEQRBEBPB57I/KglOhQx6syVOCPfZbwV2fEawS5FUeZQ2z7Hoa7gsKIvE2PawF1mLKbECwNtcWCMytbmhw20aHs60NRhfGEXav2z6FuQyOqVvHTpywuxIEnfNHAi/RDAXr6PYyqSCBBevYTeM6WdUSBEEQBEEQEYAEq3oa3fbSa+cWSE0KZaLGUOCBEPqiodZhZKeIGfVu+99BPB8Ke0qw235wsQ7y0xufx/YvfEGglO5g7Jo5ON3Z/k797NzQAsRefOvsMZN2j5LFnJLISyTDPI7tKJcK1xSBYM1WFH3xbM6N+dKFndPWsaolCIIgCIIgIoAWghVHGcHPbuayz7B0evqvvW7bs0tBtCqVixqTp5l6HHPYKWKGFlF0/SOs9i+aXLlDmVvdAOlqD2d0XN6KyGVbwtwFz8K7Li+e1N1XBKsDBGuFVLSmOGEFq2uLaxmrWoIgCIIgCCICkGANjwaX/d9a7svKpgXvqavrF9NpwZoJVo/jc+9M2xDmVhcsnV7ya8jbc2pfNCyZXSA1e5yfeGtU5Gvxfb70sVvKpfJ2ZZGXSIaCdVxnpVS8tiQhBatjg1Oq6aqpY1VLEASR8KT363c8+zGiZKem/sY6+MzTM842JFuNfJJZ4E7NTEv7Ffs3QRB9DBKs4dHotpuaapyfM3EWti2W92R1fAzlmcpOERO0FKxNLsdg5lYXNLgc/2iucaoOKHXD/GLJ67Z5mbvQaL6/+dTKtoKPKjsTP1JwaYtDGt9ZJZWsS0DBuiJXsq21S1M6pxSyqu2TpCef/CfoWP6c/RpR/jZ48InpxuQ/pYupA7Ajaxly+h9LjMafsX/rHiyn889KPdk8cOAZ5oEDzsAOOHbK4V+0LZIGpA9L/l2GKTXFKiafaxa5EovITbcI3HyrwF1hNvFXW4WUK8wC/y/4u8eSZhiTaTJkZabxAral9PToiLB4xjxs4BkWwTBr5DD+XktaUhH7s2ZYz+IHQn1VQR1daxX53fDzk2Cvgb0Nv79pEfgDYI9mCtwui4m7Af4+ITNtgEB1p4709OQTLhiSdJplCDco6yzDMCjTv2SJKcPla2LoGQPxPovXFPs6oSHpgwadhOWeKQ78B7TtCryuLKLhn/B5Jd6r4P51uVlMuUT+O1wTViE1PV1IHnJ+aurJzEWfRIsowX1ZsGKAJBB3e8KZXtrTcD0s1ofP46xkp4gJjW7nBZie8NewOj731uQMYm51QYPL3nA9iE6lNB/L5PXaLvuL18zI/yNzFxqSJP1kQmfl/yo3FyiKvESyRBas2StypPx1kM/V5X9mVdtnGD78tF9aBUM6PEyvyx7Gv4oPVfYvLemfYTozBcRFJTywm+FzB3w+ASZ3YMFeB3vOKnL3QkerxWJK/rfFlDLifDEp+D2mIkyWccAfoONxQQZ2RERIo8A/AGl+yWri34LPN6Gj8jJ8Pgl52GMVDessJsM/M428+TyeP4W5II7A8OHDf5plTEmFOi8ziwYflOU2KOOnoYw/y0xLkbLARg5DS5Wyexj+jn/PQoPvwHGS3JZE7m6wFWYjNyPDZBhmgzbOTtWnOS+NP8WSxhVBG14LZfUWlmHe/w2EcuPuq+sX/jSwdOMAqEPDnEyBvxXq4XOsm+yzoK7AsK4C9SRboD57/B+O+ToT6s4q8BdlDkrimFtCgXTxjAGZIp9jEZMvw/sR1OdDUH7/A/sKRKqE1438CdeEVeAOYn1DPT8FP98OYmot3OcvhXLOxdFuLeq+r5BuNP4aylu0mrhJ8HkdlOGtUKYvQnl+FWjbR71Xse9APX0D9hIeL7/UMaWMtg7lB5b06/cTdqqERzPB6rbvYi77HF6XrUYrwYqG0Wd9HvtNzH1M0EqwQvv6bFF13kDmNuY0uZy/a3TbX8Z9b5XSfDTD0e/Fs52HG9yOPOYudECw9q/efuETlVv6hmCdsHmUVLquVMq6KfEEa9n6Mqlud91ZrGoTmuxzUn+Db3nNAlcPnZj/YEc/BzqN2HmFhyje/DUZJcS3++BvfmYadxt8fo6dVDyPv4P6/cO750Ne/j98ZoogQATueTiuGUcKmMuokm48+dfQwbeBoF8OHYsXrZCmQBrx8wcdcJYHTPsP88C/hh1EELGOaI1exwOOwYNPhHZngTqGNphyD4jTL7A8vxcw2OEGg7Ypd7qPYfL3oIOO9YDH++sIO4b8IWsa/4gshAVDemrfqoPjLkgbxJlN3ES41tdDWf8vUD74ieUmfwr8h+ZhA85gx4QEih0zCicTD6KJ+0TuoIN/rLvedXQsw2MC9Q+/v28WuSUogtmp+jTnnjvgF1Yx9VycVQBlsxvq8kO5vHrej+D3ntfMdwZ/w//J9yf4buD+hH+D++vH4G+P1cgtguvHfI5/lkhUOP+sP50M99dp6cnJJ7A/6RKcSYMvekCg3gBl9TiU2aGRUHZyOYLhfStQ7tiOj2Xf1UmP+sCf4V51EP63x2I0XIov2tjpExatBKvX7djJXPY5cJ/Rphrnl+GIu57Goi4/UldSErPZbloK1lhPb+6Jz2WrxvYaamTn5hqnPBW4wW2/krlSj7t7+uaqrr4xJThhBevKHKliQ+XHax5Zk6ido+PwTbrFZBgDD8Ub4cH7HD408WGJHR3s6OODFH+Gh/EDOOLFjgsZ+Q20wFVlitx26HB+iedAC+WBjoZpwg5WzlkDJWsa96VF5NdkDE0xsdNElHRjSip04qFjyO3PgnQExE+gnII1WUDJeWCdSZF/EKevwin66ogGtsPzoX00Qfk+i+UT6DyH2j6CNfQbeMnA/vaAJY2vxunoLE0JhW3QaSdBOebAdX4ltN874Lr5FPMvd6wVyhj/BnXxEbZ55iJY+sP1XQz+7sAyDrTxnr7DMfSFPqGNvAX3Kw+cry9eM/3Nw7hzzKLhaiiTR8EOBe6nSnUZquHxWHfoTy5rEUQTPBvg+rwO25DttMjNTMgYbBicKXD3w7m+weUU7M+6AUU0vmS0CtwquIbeCLRH//NSu3be0wJ1gQb18BWcuxs+K4dHsB5iic/jeJwEa3i01pX8zOey7wt3LXDAluA6Vrfjg+YYjkz6PLZ0FHUo1JTSGIwFBGuju5BnbmNKQ23mKZCuV0INtoR7ri4Dsepz2ze1tpaEP/tiUmdl3didpYoiL5EskQVrzppcqXxD5TMHPjyQMGt8oKN3isXE2cxG7grouO6BTsHHfgHof5urJL7kB6XAq5pegwLAYuLngJ+nAm/ytXqw+zvEA7FD9Z7VxLvYKTUnQ0wZjoIeyuvD7zonCulRY+gHhZksfEV+zwgT/3d22oQHp3bjKB/key+Io2/9ZavcBiNpeL7ACCD8/ip0Bi/72+AzT2fJjDtw+qD17DNPzzAaHGaBr8tM43ZYTIa3/deL/0XAsUQk/h9Ew9uWvwwJel0MihmwO+QRIg2vESULjEJBGnf3ldFWXBNpNRom4wsHKIOvMf+RFEoBw+sj8IyQzyVwz5pNvA+XZwwf3k/1S8ye4CwTEIKT4Vyv5Zw9EIQZfxjuCbpZipOZlsSZTSkXw7X0RECkavFyIFTD8vfXu1znj1nFlMm4fIclMyGADjkJVg3wufKuxy1plMpHjeGU1SaXLYe5jzqaCFY5gJT90yW1dl0sLfG67CtwOxqltB7JUKzecLG83rV70RzHicxVeMzprp4yuQ/sxZrIgtW+0SHlrynYwao0HjkOA9SAOC22mrjLoXN3G3TG38GHbM+O67EeuvhdOHY98xkUGDgCOlaXWISUVwIP2Eg93L/rvJq4lvRBp53EkhA2OP0KymsF5OMgCuNjdfLDNcwDlNHBEaJhLktCQjJySNJp0B4vhjy/EBCKke50B2uBkW/4+YBVSJlpjIOAX3KQL/86ahAz/BK4Vh+Advu+/zofKJevfJ2H8CIAr1eziXspmIBn6UN4AY7ZFLgOI3WdK5ksokTuhRGmpIR90fOPoRioCkfG+Zfl6yUKIvVI9r14xTXO/LcW0fA4iMsGq2AozTo7JTUUAVtS0u8n6caBZ1mNXC0Ir33oV35OwDnQ8MUq+2rMwNk7kMdrIK/vZUOetXxZGa4FZkhAeh7MGpqcz5Ic90BHnASrBtR7bJXXoMgEgaNURqHa9f51rLXMfdRJNMHqnWWfhiOroUxxxu+iWG3y2LcvuChPu1gui+9pzBq/peLb8nYSrPFq+S0F0viWiStZleqaKdBRwOAMVgyYYeJd0GldaTEZHocH2/v+N8L+h22oHVc0WbDCQ5ud6qjgm3JcfwQi73k8DjsgSj61NuxE5ML54Of7LjClnMmSo4osOD4Tg0AJ/GeYh0gL1Z6G58JOCNTjcr2v4QqV85OSfm818hdBPl+NZttQY5g2f2eQ24ORVVkWYgpOq4e0WUaIhrFwfV1sFrhV0E4egr+9YRW4bzC9/nJVd533NMw/3EMegdMeccqtvH4SXzwI/IfYmQ/nfOEYCjhrGv/+iDTDSJa0hCB9WLJBHsmEe7j8wiyI6wWn72LdY/2h4THhtoUjGYpmPMd3L/ME/gOwZ6Et7rQIhpssIrcA2tB8+PRYhJRZcIxbbrci74PvtcN39uM9FuuvpxDEtMrpNfExi86PwQBxrTSk75NoPwNCNSw/XKICz9316YOTDSwLcQt0zEmwagDuyQkC8+vFGq1jxTJtdNtvZu6jToMrb0SiCNb6alvl4hrnV7h/qlI6lQynZV+PdVBjX+HzFP+CudKG9U9c9/tRbUVvVm5O7HWsiSxYnRvypbk7LrqUVamugE6ACB2DWnio3wwP/tusJsN/4eH1Hj7o8QGLnVe5w4KdFYWHXCiGvqDTfhk79RHB6Ldw/rsCHRAlX5E27DxBfv+D23OwZAUNrtE1G1NmQKdKFlSx6qT46xADXfFtKApY8uIa6LhWQXvd728boZVroGOMx2JblI21sUh1xgOGQgw+v7CmGWazrMSEjKHcBBAuz+C1HBCm/ms8UAbatlX0C3V2Gzv9j0ARD53kvZgGPXTmsT2AWPvQOsSQzpIYt8jrJPHeLvJvBiNUsfz9bQG/x0lmgXsP6u4FFI/w+RL4eg+/J19DrM2E+0zobegP04HnQP94HjRsp71N/h98B7+r1HYC13MGPE9YkUQNDKgH5XYRPF/fwXSG0rZ7lsGP71XaPIuPZIFnBvz88ggTp/l2VNEEOuckWDVg0QTHiT6PY3+o6yOPZFimIIDvYu6jjm+WI6MJxGq4ghXy8GmTyxmzFzs+j626qdbxLY5+K6VRybDsl8xxfuF150Vu9t2MbZMer9pCgjUuDfdgXWOXZnTMyGTVqRsspuRpWSL/ceDhjx2E7x6IEei8s85rDTv9j8DgGCCulmaJKfIoj5KPaJos9sSUezDqMUviMbEIyedBZ+/2QFkq+Y22+UUrhyP8cbuHK452QyetBcsUy1Ypn0oW6PSxtvc5dCL/C23sARBte9HgO/fB35+Av70Ov8vfC1wLWncK5amu4Ncs8utisaWSWTBMlTvAmLcQOtDhGJ4LyrWVJaEnx8lb1KTxn+L9R+nYWBmm2ZpmeM2Sxulqj71QyDQmnwXtd4+/LR+9rrEt4PdAqH9kMXGd1jT+wn+YBvzlgrQkDpdk4JZbUE+n4PpLS1ry2fBzuUUwLIVr6T/4nJCPjVJ7CsUwTXBdfzFyWHRHC0cMNfwVyvC+YMo+YHivCdx75FFOgXsfX8yZRe4++P8eyMed7L71NPz9XXxG43fl7wd5jlDMf/9LOYRbwEGW4vG50R866CRYNQIE65YbNFrHisIXxN6zmo/uBYmWgnVpbWEycxs14LypzbXOdViOchArhfT1NvweRgJuqnE85q22WZiryODZOX3VqG1FikIvUSxRBStuaVO4pujwjB0zdNX5walK0OH4Qu6cKTywImH4YAUBOIUl4QfgtK1MkXsOxZWeOj9y4A4TtwGSeNSH9t8GDz7RkmbA9WGfYyeit59YGnaGME1mE3cxS25ckYHT00X+AAqbYEUkdrjQ4Ofnof6uNwsp+fI6siFD/pie3u945hrpj3WH07f/YeL+Yh7GjcLZBnBt7A90xkMZHTmW4VTLnLMxH9zdGFmbpSHiGI39fmYWuBej3TbxfJY0/gf77qUbT/4T1GMr3nu0LFstTb5eQCzYhg+Pu0A0cJ1PyhR4ObCbUt56Gnsx84UlLaUpQzQMZi6C4twBA35hETmrVeQ2gg85eJPSOWJlmDeLaNgXzPpprQAxOROu7U9Dea4GrgO4T2Gk5qstQ5OsuG90tn8LoO+eO3jfSh+W/DuMJ4HR0PFcZsHQjjN5MK9Y/lo+OzFNchsSuNXxNkOnrq7uuEa3/QkSrNrQ6LJ5tRKsS+bkY4TdNxfEaHRSS8HaXG2PSgTyulnZv1nkzrugyWNvbvY4371+flFQ6cdoxhiMaXGN86NGt/NK3KuVuYwcU7vGTR+/q0JR6CWKoWAd31kllawrkUYuTyDBuipHGr1x9Nvb/rtN1T6EkQI7J2aB/zZanQwUGvgAzBS4USwJMn8b/McTzWLyYvjfYSYwdGWYbuxQmEXDEaMHZ5r4v8N3H8CHu1474JiuLJH/BvcKZcmOC3BEHoTjl8G2DRSZWA8WgX8JOoDTQolO2xOc0gcCLxM6nyugDXyI14mWdSunMY17AteLs1NGlBK/YD0QbVGB54M6bGLJ6CdvO5TGPRuMmIq1+dsRt4glXfegoMkQDE3yetMgRt3ktiBw+7W4J1hMySOgrO5Bn3p54ehvY4arWRIjijz92sTdgPepYO8T+D2/sOXuzRT4ArX7aGMkb6vJMBryegvcqw7LdaBwPjXmv58OxHXAmzNPPfVX7JS6p6Sk5Cc+j+NJEqza4HPZpvoDL6kXeQHzbwlj/6LRXfB/zH1U0UKwysfXOr5t8OTNXDgre4C3xnbSYhCVOGpcV5d+vKRiVsIeOA4F5cJqW5JvZt6wplpbTpPHMQfKvgXOtx/PidGagxlVxaBKsqitdX4BYnVFQ3WewE4TeRruXpgzsavqcFlb4gZeSlTBattgl4rXltwqSVLPUR1dAIL1QngovYMPdnzIRVJsBQSrxZRSxk4PojlpOPzvITz/sTo5+ODE4wNTQvFBHzD8Hf8eqfRngX/o2H2msNn6cdBRmA1p+1Tu/CkceyTD8sA8f2/K39PSMI1mwfAEijGWfj1zHHTklmD9BluvckcdvwsdRy33QTWflWS0pvHXZqXxB/0dTOXzh2pyhzqNfwqnXrJTRZQMgR8P5XMYz4vlpFWn9miG57KIHE4rlNcf47TTYMsQrwusU//1Hd1rHg2nZlrTuK+yhnHnyAWoY3AUEdK8zn8v/XFeehuWIdTL3RcMSTqNuQibzLRTf4UvJ7BujnU/j7T5z4/7a3MiS17EOC+NPwXaSbdc9gppUTL5eSHwn+OsFy2D4oFvC6bF/5zUrg5QtJpN/Ba1ojraoGjAdZckWLWhcbYtC0VQOCIvYOgDxVeD2x71teUInleLvHx3vNvxP7DnfB77k40e+z74+X74+S4Qm7f73I5b4Dvd8Pt2EOlbcWo1fHbC3zrQ8Hf4Dvzfdrt8nNv+FNibjS77IXxBgO0XRepS+Aw2vc21+RKc+93FtY5FGDCLZTt6dD/X/ZvR7aWvJvI61rJWFKyVKO4SSrAWtBZihOBrWVXqjsxBSRyuZYWOxlZ4wL8T6BBGosMhv/UX+FstQsp5ZpGbkSly7x5N6GFnFNPyXUcA93MUuP0Wk+EW6Ii0ws8bQZxswal78PNLcIw8FSsS4hvTAOffw4qtX7qYOsAqpnRi5yyYc+F3sAOBftDwd4u8RyD3tUXgv8XyxnTj/4L1qcbQP5TVfJYNXYKdb6jTNVgewbZDrHdoWx9C3qqYG82xiqnnghiQAwRpdX1kn40vEfiH/jLkdFUjwaFiTTOMhGtnO5z7LWyPkbhWehqeA9p3l0U0LIDfDx9t5E9+qcXSxOrzC0jrqxYTtw9+3mYWuE3yNS9wW+DzXuhAwzXPfRrJfMjXi2jQ95ZkJSU/gfJYn4vLKRTy0NuwrOD7T2LMAOZBU/AlHtZFJJ4hwVru2SiwuGUsSRHDajwtCdrjA/IopEI6lAzLH+rpKXwOMjeaYzUmj4dz/A/br1Ia1JgcC0Hk17JT6BoSrNoC4scIQusQCj2lcgrFcHuca+cWSPXuXCdzH1W0EqxoKLyvmZMPViCvzcX2di20GWw314HQRLEZMJyaq2T4P/wuHhdYl4rpw3LCaMZK5z2a4ZRrEMgvNrrzqhbPLRjQCs8HlvXo4dpx4d6qrsRdx4qCdVxHhVS0pjhxBOuKXMm5Pl+av3P+VFaNugbX1FmNKZMzQVTCw05ek6R1JzDgDzuZSr6xwyWPpsidKv4zeEBicJx/mkU+JxtEIiRTcapF8bkDfiHvdypwE6Bz24YdWbljoGH65c63yXA9broPnb2n5fW2Ct8LWECEyp1vkfsEOjaPQAf8euhou8xGrgSjV+J0YpxOB50rO6YdBNFV8Hkb5P39wLFHO0eohoIA/L9tHjZAV1PUA+D+i7hm+Fhl29OwXuC7r+N0U+YmYuDm+pY0bhG23aOJr1AM17RCnjtL+vWL2oNl5JAhp5lNyeXQFtaDyW1NHhlTSF+4htfB0UbdAtcJlimk5SXcysRsTB4H1/GfrTz/W5bkH4FrKOE6TIPrfgzLxwcBP0rnUWNYHpg+KKsMdlrdMcLELZG3A+qVdiVjbfZj85CkiE7Hgzq8VOt7V7CGcQfg86lICfIA6alnDIB7wSOhiEL/dw0PXmA6Pawt04IhyzggFZ47O/Ga0GIGT+A6NYvc5ewUuoUEq7YsmuE43ee2f7RkdvgiDw2FWqPbEbGXy0dDS8GqV8MtiFBEwzXwZVOt826v235FU63jr3UlUVrPP3P7lIvG7ChRFHuJYChYxyaaYF0JgnVV/qGarpnRH5YPk8xhIKQEbiV0Gj+XxYOWnUCFhyd2bPBhyMTH42ZTysXwPdXz7tPTBgggAq4H31+PDKFDcSwLCO2jdYqxU+jvmHAHM0VuB66lzBKSh4QiSPDlgVngp2YK3N0j4Vx4XqVzqTH/qJF/mqbewIBHoYxWyO0F9840Jf2duYgKFiM/Fs7/uRb1gtcD1olZMNQx91ElY6gh2Swmu61iyj55hFN+waKcVi0N7ylyWxQ4HEndaB7GF2AALJaskLGISTy2a/D9FvrVSiyx66WFnUZXWIyGKf5rILh2KAsOE3cJOzyiWAVuI5adUjpCNbzfYh6PJLxkMQXtltX73kivDccZEVCO94Vyr8Kyh7b+5EgNp2EfC5zCC8+gJVrN2pGffSJ/KGNIcsz2tg2GZVOm/BSnV+JUSqUOfbBGgtXPgovyfu/z2F8IZQuVoxmOKnrd+YoBOCNNXxCsaDhCi8IV2zCuZ4W/HWquddwLf69piHR040tvmZs3uXs0CLvEXMeK+RrbUS4VrilMGMHqD7g05o2ufetPYtUYd6Qbk88C0boaHlaH8IHb+wGmhQUeptAZ2WtOSy7Xck3PCMGQbk3jH9eq44R2pI6w3NnHDpPAvWY1Ji/C0R+WDNWgyLWYDGVwzqdk3xq8KcfyNovcqxhxkp1GF2QIhivlPCqkWcmwkwrt5nDPddHRxGw60w718ZEWolVu/yL/zQgxKbIh54+C0Wj8mSUtpQzScy/mSYt8HcnYveSgVeRuyPrx2vCwYCNLGzH9WnXSQbB+itFZ2Sl0Ac4ogTYTdPuTvydwz5/jjz4bcczCKafCs+NlvN8opSdoE7hvLCL/Fvg6iPcGzAfez3HaL3768899A/eDh+A7F2JEbJaEiIBLFiyCoSvkF2si/y60o4ivqVUCyudyecRbo+cHCO83cTo0c687SLBqCwYTanQ79oVbngHzC1bnLOY+qvQVwdrbMM+yeIWyb3I73ve67Tc219r+wopFWzqeXnvauM7yNyo3FygKvng3FKxj2sulggQSrPaNDql0bWmHJEnxuI/ZD8gwJpnhIfWAlqMv2BGUO65p3CMoOiI1JRID8GAERdZJ1tzkt/vgGzojb1hEwz+1DGQSADoap0CnYzV2FvB8SukI1gKdPowsydzHHBD3o1Dwh5I37KxaBH4pcxET/mHi7FCen7OplmGZfG0J/FNsO4uYMXz48J9mmriJ0OZe0Hq0Fa95f4eX350uJp/LThkRMgW+GvLwpSZ1I7e1I+8hHW2wjuCauS2UF3GYB7OJj9yG8QrgWsrsMO5XrK10ydu5iIbBVqPBYTUluyHv9ZlpXLNFTF5oNnIz4Lr5c2qUAgKBePaG+gIU77fwbBjLXMQEeD4twDaghWj133u5DuZad5Bg1Za69PTjoTzvxHWWSuUUqsmiqcYRk/tpXxWsAcN1sd/vy+r8ssljX+etzhvOikc7qrundo/aVqwo+OLdULBWtZVKztX5IFhzFAVgPFn2zTlSYVuRNKXtwitZ9cU91uH8b6FjcKcWnVj5wSnyH2YK3HxcF8hOETGww2NJS7kTz6uUHrXG3lofwpGiaER7hU7HZfLb+jBFq9zhErgtzG1MGTk0xQTt6gP/SIlyenub/N007kVLlIIVHQ2ziZukRZ2g4agNiIqobMVxLMwDB5xhNfG3hlIvRzP5hYSYchA6/HPAfVRe4uE6XRDJB8MdaWWC9TbcLoO5jinmodyobLk8ldPb2+T8C/yHuP82cxEVUFjDPWuf2vuuLFhN/OO4tp25jClmkSvxv1hTTq+SyW3HZNjOXMQUuOev1uIZiPc6vC9geTDXuoIEq/b4PPZuLA+lcgrVULCCv1rmOqr0dcHa0+R9Wv0vD76A+mi+cvJI7QZbZu+eOXVcd1mCTgt2ShWtxZJ9lVPKTgDBigGXHKuchy/ddalug3WoAUdFMgX+63De0rKRpDtxWxvmNirgWj0QlvIm60rpCtXwwQ9l8bRVSM5lp4gKFpw6G2YesANrFriPWSCrmCFPQxX5vWpGLFAoMjcxx2I0NOVo0K6YsPjMbEwyMtcxJWPon5Khk/tOuIJPPj6N/wTqzM5cRw2LiZsuv1BQSFew5r9e+I/SBw+OyWb3PbFh4C8Ttz+U+5h8vzDxtzAXUQXqfKLa+xUKI4vAfZtlSvobcxcz8PkB9/vXQ3mBg+mHdveVVTjzz8xNTEk3Gn8N17O8Z7hSekMxbH9mkX8mnHXnkYIEq/bgFiwoNJXKKVTzC1ZHNXMdVbQUrCj4MC8Bw2i/2Ga+M/a3nt9B+y46MHwHIwPj2mBcb4rrTpXOE2nzj7gWQZk4nm+cZS9lRRUeTQ82nTVxS9WXZe0Juh9rS5FkW+mQRycVRWA82apcqWJdxTsr96zU1TrBcMH1pdCBeELtqAvruKzWcp1qKJiNXLF/pEc5fcEadmDBx7oso/EPzHVUMYvJm8J5U47590+3i9w2MMFgEVJqQs0HjixBh/0ZPe0ne+65A34BZXm/FqMXbLrdGuY65piNfHu4L0jkzq3J4GIuo06GYNgYbt3gfSPDxMc82AxO5Q+1PuTvC/xFzEVUSR806CSzwL2udmo2Xu96WL4AeViPEb2V0ngkwzYHgl1XAbsgH2mZYsqH4b6EQpPzJ/Ju5lo3kGDVnka3ox1FllI5hWrox+exTWeuo4q32mbxi8PwBCuKXmhjn8HPt3hdthaw5V6X/Xqfy7YEDcrrGp/bcR38vAz/53PbVsL/1zS6bBt91batvhrH7ka3/V74zpPw3f9hRN+lIFx7bouDQjbcdIZiGFUbt+nxeezXL5xiPWKE/qCQJOn4SZtHPZyI04Ir2vKl0k35Uu7NecoCMM4M16+O2ljZkgjrV3tjEbndajp/7AH5cpZxQExEXgBcExXOG2a/0DPsx9FB5jLqQKfjVKvIvaD2xQGaf/pp5PcqPBKZaUlcpsi9h1GQldJ3JMO2ZzEZcFqprgAR/ZdMkQ97+ql/ajH3VaYx+SzmOqbA9dKg5noPGAoVEODP4dZTzGXUGTks2QBl+l44dYOiz2zifcxlrOgP99+9oUY+x3yPFJOszEfUMYvcCrVtSH6BE+Oo5mYxOUceLQ1hZhF+F4/B+A/MjW4YIXC1WkTPx+cP3PdeOtr2U7GABKv2gIhp01Kwel2OCcx1VNFCsKJYbapxfO2tseUzt6qoq6s7btEcx4kLZxUMqK+2p2Hamjy2qT6XfSkI2D1wrlcWz/aP4qKQxZ97p0Vrw7zh+lb4vGeRa+RgllR1zN5VXZ+I29ugYC3e6JSyFcRfvBmOEBe1FkvTO6frrlOtBdB52KGm8+HveBiuYW5iBu59CsICo0oqpvNYhh1XPYyAmYWkUeEIVr/w5h/AqJfMZVRBsRzqiwPseEPZfzxycHLMp2YqYRa4+lCihx7J/KOshpuY25hiNfFXhyNY/Xnhmpm7mGGV60Z9PlgZ7GbuYgLunwrC+8tQ7l14zcjTmYXkmG2vliEYSkeepfJ+K5e7YR1zFXUw6jCIspADDrIZLI+kp/c7nrnSDVNwbbFGM0JwBNwsGHS11zwJVu2B8ujQSrDi9FNvjTMm0f21EKwoHKF9fdJcbY/oXs/y/ree3IzmGuelPpftLhDJn8riFdp1JEdeMTATngfO97Jvll19cMSrb730vAlbKw+XtSXWtOCKtgKpbFOBlL1cWQTGk+WuzMP1q99cecuVuli3ojXw8N4e6oMOp6DKHSedrDuEB+ytah/W8vRGkdvLXMUMecsbjNysMh/Y6YXjP8mKwib2vckYlmKCNHwR6oiXX/zwW5kb3YEj3xYT/1o4LxLQWLm8h/vxMtcxA653Obpo7zQGa3KHNi1pInMXM6ym5KEgWg+qfVEl16nAPxvL7aBwWm+odYHpzhS4586N4cwWyxBuEJS9qmmoeL+1mvj7mKuog4G75DQopO1olo0zWAT+X8yN7oB7VSZcC4fVXg8B87/A5R/EAFvMdcwhwao9jW77Vi0EKwqta+YWSItq7DbmOqpoJlg99k+bXM6ovjj3efKG+TzOeU0u+yPXQBpw2nAkg0ehfyind6DMzmdJCI37Xr3vF5M3j/nPqK4iReEXr1YJgrWypTQhBGvOmlypasOop/fv3x+zKaORBPegC7XTFBCs8HMFcxNTcIsBNZ0QNH/HlXuxeEDspjgGgA7seLXiCOsEOytmU0rUA4OB4L9OzWgX5hU6RzEJ1hAsIFjnhDOSFzC8xixisoe5jRlQ3lepFazytEj4BNEbk85JbyAvqpYzoPk79tyn6YNiN1JpEbjbQ02/LChEbl+/kshsGxYMGF0Z0v6omnuuf0o5fyAWcQ/kKMcqRiKZCPwm3cir6+hFCbNg2Kb2eghYYJp0xlDDP5jbmEOCVXugPHdheSiVUyiGU07h87DPY0tnrqOKhiOsnzZML0xmbqPKsinDf9rottmbaxzdi2f791eNVMAm5vvtBbMcZ7PTh8bcXe4rxuwoVRR+8WooWMe2Vca9YMXpwAWthdL4TePrWXUlHGaB2xLyAxwMBSs8/GMa5CeAeeDAMyAt76gJBMKE91t6GP2CejgZOtFvqg1oggLQLPAXMndRITs1dYBF5N8PdbQFO4HQcT2UYTIMY650CW61YxXCH2WVR/IFw92x3krFLHKXq+3UBkZvQDDFbP1kT6Ctzwt1amdPwzYL5XEBcxdV8FqH6+atUK8brDu4193D3MQMi4lrUVP2/vxy75iHDTyDuYoaWQKXCec/jM8vpbQdydiLtQOZaWm/Yq50idmUnAGC81DgOlVr8swXU+yX+wQgwaotdXXpxze6HXu12IfVL/Ycn/lm5sXkOa5FlOBYC9aeNLlsOYtrHHdhW8Vov0rpDddwpNXncTzn8+SFfg++/I5LhyfatODKNhB57aPjf4R1Ra6Uv67g0GW3XZbJqivhgM5nZ7wLVsQqcDvVd6D4T0C4pzFXMQVEzQa1I3pYj7jukrmKCrjxvxoBNDJN7ng/j1szMFe6BTqBqkclA5Ypyu3sIFxvInMbE6B91anNS6AjjNMPmbuYYhUM6ZAe1R10fImQZUqJydorOe0C/21gRCtYw7oD8XQncxMzIA2qtuNigvW9WKxbh3a7Xs291V/mXAdzo1tKSvr9xGLi9oZ7r2IvPv+rl3szCizoYO/HtX5KHfBgjQSrn5V1Y08AwfoQbsGiVE6hGEahbfTYX/fWOKO+FAlJNMGKLJ6V/fPGGufs5hrHp9hmldIcrmEgJp/H3tUa6gv0Vw+/+oupm8cmVLRgFKwTO8bFvWDNXZMnla0vf7n7ue6fs+pKOKDT1B7qA06fgpWfp+ZBLXd2cS/aYfzfmauYYjZyM9WO5slvxgXDeuYq4qSnpx8PHde71JS7nFaR62SudA0GuIE2onq9ZMDk6ZyCIaZToOH8l6rt0OpNsGan/ulkEH6qowWjYIU2GJNp2tCexqupB/kYPQhW0TAlnBHWvCiPsOKILjyvVO1BjIHXLCL/T+ZK14ww8mPDjRgsj0BDOWWI+pgWTIJVWxbOs/4WBNp/cZsVpXIKxeRRb7fjGZ+nOCZLqhpnOqy4f6oWU4Kbq0tiPsuuJ75Z2ec21zoeu35+kRw4SSntag3LC9cw17vsoW9jNXeXyz12R5mi+ItHq2wvlCZvngCCNb73YHVsckrjWyZey6opIYGHU2uoHSc9CtYRppSRajojgU54egy3iegJCmd/upTTezTzd2a5buYq4kAaBWtaaFFOAybvgZgW3dHgcFATnKy3YQffLCTHNMiUVUy5RG0+9CZY5Yiv8lrK0NsfmixYBf4q5i6qYD2oiUCNdQd5vp+5iRnQjvPDmNHyhuUvQ/7IXEUFfFapSS8ati+MjMxc6Zrzcaq5wL0W6vZivc3/LDHUMbcxhQSrtjTUFpzic9ne1mLKKZapz22L2Qs0rQRro9v+SaxGiY9G/fTcPzXVOHZGQrTiC4vmGucH3pr8Qex0wbFs37KkiZtHfVzekRjTglGwTt08Mb4F64pcqXBDkTSve56dVVNCYhW5TaFOk9KjYEXxBOn5NFTxhMIQ85MxNDmXuYopGOUXBMHnakSgv0PG3RutrRfgnO5wOoEgAqcxV7rHbOImqhVGAZPzLHAHsozGmEV4zRS4+YkiWBGrwO9UE/wHTW67Ah+TF5LQDprUTE/155V7LDU1NaazfixDOasaUSRfAyJ3IDs7uuk3i/w6NfcqbPNQV19nmJL+xlzpHrhXqd4nN2DyixGR2wHuYr73PK77B8H6JAlWbWh05/GNLvtXzSD0lMopFJMFq8u2irmOOokuWJGGUZm/gnR2REK0ylODq22hbzM2c9vk9WO7EyP4UiIIVpwOXLG24oU9e/ZEPZphNIGH0sZEEKwjhySdBnl5NdSARYG8ZBgNDuYqpmQZB/wByvUVNaPFbIrjY+nGk6Oy9shi4jer6RjJLwnA9BJtNhiyTCn4IuFjNS8SAuY/lvvGKiar3wstTECgqZo6j6ZHwQrXynq1+ZE75THagxn35VWTbv9LD/4lqIOI7hl4LHC6KLYHvH8qpfNIhumHtP+HuYkKaWmn/grui8+reeEk34cF7l2LOJBn7nQP1I1DzfOjp8llJfAvpw867STmNmaQYNWWJpftPCwPFuE3LPMLVvs85jrqaClYF84qGMDc6o666em/BrF6mxZbEfU0LLvmGsdX3tr84exUwXHFnrrs8V0VUnmbsgiMJ4t3wYrRgfNbCqTJ7ZMXsupJWLDDlwiC1Tb8tF9Cp+TpUEdbAnkxC3wBcxVTMBIldBQeU9O5Yp3ZZ88Xk37P3EUMPAfUv6pOoCx8BO4bs5E7h7mLC6BsVW+jEjA83mxMHsdcRh2ziZ+rNg+6FKwid72akUo0uRwEQxtzFVUg3apGwdh992OzMcnIXMUEq5E/H++d+OJJKZ1HMhzlxK3UmJuogPcZq6hu6QK7vx3ITk39DXOne/BlBrSRN8IRraysDpvFpP9jbmNGXV3dcSAoniDBqg2NbkdxuCIvYFgn3pqCmL3s7yuCFcER4KYax4vhXge97QYQwV63fQU7TXDse33fL6dsHre/amuhogiMJ0PBOiWe17CuzJUK1xV9feVtV8ZVh1oNiSJYERBBj6gSrCj0TElFzE1MYXsF3q1mmqOcD5F7IRpvxS1Dk8+GTuC3ajqBeAyIv8+zTakpzF1cYDYlX6JWHAVMFqxRjuTcE9xXNpEEq1VIqVezFhQNywHaYUzWFMN5VY2wfveCLQb7LfckUzT8A9OB6VFK55EM85yZxjUzN1HBLPLjwlq6IPBPg5uYT40NBUsav1XtdR4wnPIN97xy5jJmkGDVFq/bORvLMty9PpnQ+7ShOk9grqNOXxKsiNflHAn5/UaL0fGALZmTj4L1/ZCnRF90i2fmuO5yRREYT4ZRgid1jo9bwZq3ziZVra96gFVLQgMPprWJI1j5u9R0TLBTYjZyxcxNrOlvEfndavIhC1Z5v0D+FOYrYmSa+HI1o6toctsROdxKKKbTGkMFhRqk/7AakR4weYTJxG1mLqMO5KFWbUdWj4IV2tG/c84OQ7CauO3MVVSxiIZr1NYDtqFMgZ/KXMUES1pytpp7FD5roMynMzdRAZ5TDWrLWl5mIRgeZK7iBqvIXaKmfnoa5t0sGP7FXMYMEqza0uC2XYdrF5XKKBTDCME+t/0pXGPJXEcdrQSrz+P4WNW+pDEAxOUNuJ5VKS9qDfdmrfc4JrNTBMf6fetPmrS56s2KzQWKQjBezL8P6xgQrMqCUO9W2FokTe+cPpNVS0ID4mhNoghWeLiq2otVZ4IVO7NdajpY0RSs1jS+Ts0oMJq/7RjePdc4IGbBh9SA5WoVONXbqKDJnUCR28dcRp1EE6y4JjesEdYYCVZoS1eqHa2XX3qIXGhTuDTGakoZHeq9lrWfQ2ZTclRHh3EKstp7lV+0cXuYq7jBOjTJgtO1Qx0B72ny9SEYbmIuY0l/6FQ/roVg9Xnsu5jPPksjiHYt1kLKLwA89pgsqQjQJwVrjfNMSO8718wOf1uigKFg9bkdoe81XbuzumHcznKprDV+IwZXtBVIlZsq4lKw5q7Ok4rXlb6z/J7lp7MqSWgSSbBCejoSQbBCJ7xN74LVLPBr1AofbDvQCXwjfVjy75i7eKE/iM371HZ+0fyj0tzzfxs8+ETmM6okmmA1m3i32vzIHfKYjbByHrVCW75fCdwT2TGMFGwx8peGeq/1p5t/3TLk9GhuadPfLBieDFOw7ma+4oZsMXUA5PujcF6uyddVlNcbHwnoVGslWOOuLrWkaazzdz63/Tkt9mC97iKoj2qHi7mOCfVuWxYKTi0Ea6O74DTmVvd43Y6r8aWDVlGDsT1Au3ht2byS37JTBEfTPYsGT9hcebC8Q1kMxoOhYC1eVxSXgtW5KV+a1DYlofde7YlV4FYnzAirybA+IUZYVawrRouyYL01PMHKx6NgxbWHN6odGUPzXzf86+nQoWQuowq0rZpEEqw4vVTNNY8WS8GaYUyuwPuOmhEwrAcQvF/GMiAOtIGQ77X4fWj7URVAeI+Bsgo5enzAmGCNu1G59PTkE6wC/1A4L9fk60Pk9zKXMQU61SRYNWDxLIex0e0Iew0kHt9c4/zGNzMvpnFe+qpg9U23p0Jb/hTTrpSnUA3rE/x92+jOu4CdIniqt09ZPXZnfG9x41htjzvBmr0yRypaX/x13S11f2ZVkfAkkmCFzueKRBCsUCerdC1Y6/odBx2ZB9V2huS2IxreikY0Y60xi4a5akfG0JhgfT9DHDyYuYwqOLKXUILVaJiC12/vtAZjsRSsmSb+73CdfxMo01AN054h8Bcxd1Fl+PB+P4V29Gio179fABmmMDdRAbejsYrqp/HLgtXE3cbcxRVQRy3hvFxj9ftQtPfMVQI61SRYNaDeY6vE0bRwAy5hXfhctv3L6my/ZK5jQl8VrIjXZe/UcpsbeVqwxz6RuQ8e330LxAlbq74qb1cWg3q3Ue3FknO1QxoZZ0GX7Bsc0ugNo+Py4aSWxBph5ZYlhGAV+ZvVClaozxfPT/3TycxVRMB9XqHuVU+z8wtW7v0oTw3UBLOJL5fLOcTtPALm7zhzn0D+ReYyqiSaYLUKyePVjlTGVLDiemiRf0vtyJ88Wily+9LT049nLqOG1ZQ8FO4zn4QitgPXvNXIJzE3USHrLMMwOP+nYQlWkdPFKGOowHXaoIFgfSzdaIzKvt5HAzrUYQvWa/2C9VZwF1cRn7WksTpvsRYiB32AyFvG3MaMRhCsS/qoYG1yOSYsnVsgNXnCGy0P2DIMxOW2X8nch8bMbZPXj+mOv1HWslaHNK6zQipcUxhXghX3Xi3cWCTN7Z6rG+ESDRJJsFoEfmmCjLAuUzOKFy3Bahs+6CSraFC1Bysa67x+MnJIUlw9IBDczsMi8qq280Fj183nsZrOqYVgzTAZspi7mANpGYPtPt4EKwLnVrV9FZocUCct5dA/hkT/5YFV4MeH2obwGWM2cauYi6hhHZJ6LlxvqvZgRZMFq4l7mLmLK+B5WK22faHJ93eBe0oPSzegQ02CNUzq6tKP97ls9+BIs1L5BGs4OotboTTUOvKY65jRlwXr4ln5KT63/XMMOqWUr1BNfpER6n6sAervqT9r/NaKr+NtlLW0xSFN3DxaKl5bAoI1W1Ec6tHkrWw2jvrPgQPSCawK+gSJJVi55kQQrNCRvV7PgjXdmPwnKOsDagUrdh6hM/WFdSg/kLmMG7KE5CGQB9XBTBJBsFpNhpHMXcwxC9woLNN4FKyQhqvDGQHD9JuN/DbmLmpAmW8J5T4ri2uR+zpzqOGvzEXUMIvcBXBPVD31Wn42mPhnwFXciRzIewnmW821gYZ5h3vV0yRYEwPIe2qj2/FZuAIHR/V8bsdLTS5nzNuFb1Zu9jV9VLCWlJT8xOeyP4L1oZSvUM1/fTi2MPehM2v71FYcZY2niMEoWCdvHSuVriuVsm6KD8GKo6tFLcWSp8sznhV9nyGRBCukzZcYI6z8tWoFKwiSF9IHDTqJuYoIFwxJOg3q/uXwBCv37Yi06Hdgw+W8wFROlR1g/3Hcp1kmwzDmMqqA2Ag7SrCeBKvFyFXFrWA1pYyEtB9WKyhkMZLGH4Jr3spcRpx0Y0oqtN+PQ2n/eC+ziHwLcxFVMnBGhKB+RgS7x718Tmrqb5jLuMFiShmBecAXBj3zFKwxwfqEI0YRzXsCHWpNBCsIttskqW8KVm+NcxyWQbiRZdlInC4Cky6qzsv1r8kNX7AumuGIu51BfC7HKq3WsfZ4oaOO+rvq0yZsqfwyniIGl7bYpSkgWMvWl8WNYMXR1YoNlc/e88w9Mb8xR5sE29amIREEK5TvNTln61ewQgcI9yN9Ub1g9X9CfcV8SlGopCcnnwBl/LI8mt0rX8GYfN2IGHTJEJOgS+EJVv+nxZiSzdzFnAwjXxGvghW3NoJr4Dm11xGafL8T+IewXTK3EQWu+ytCeV6wuvnUevbAocxFVBnhD271tVrByp5z76QPTjYwl3EDvhQLT6zL66QfxojDzGWs0GQfVr9gtd9RV1d3HPPbp/C5Ha3hiptmEIZgh73VtvOZ25iipWCNl31Ye9Lgcfxz2cXFivkK1dgIa3h7Tnt2TLtu7M6yuBll9Y+wjombEdZssIKWQmlmx8xqVuR9Cug8ryXBqrMpwSoFq9zxFfj/ZhkH/IG5igjo3yoY/qtasIKh4DObuNAj0sWYkpJ+PzGL3NNq884E6xtZppQzmcuoooVgNQ/lc5i7mGMxGcrCEqyCoZu5igkWU8rC7DCiTqP588FfxVxGDOvZZ55uTQttdgHejzGyNnMRdSwm7i9wTzyoVrThcVC2B9EPcxk35IkDeRCcX6nNu3yfEPi7wFVMRyTlqY8ex5MaTQne0xcFa/3s3D/5PLa3wt1/9fqLoAzdtntxPSxzHVN8GgnWRrf9k4WzCmKy1Vw4NHjsE+VR8zCjPqOhH6/LdjtzrY7r77/eMLlr9PsVmwsUBaLeLN7WsOautUnl68pf2vzo5rjbE1IL4MG0LoEE66K+Llihc/VspLeLGT78tF9CGh8PJ6AHtjnoTP2buYwn+mMQFrV5979U4F60DudD26BbIzJMhtnhClboxOYydzEnXMFqjbFglddEC9xnoYjA3pYF9QKi5NtMkSthbiMCiLbrQ2k78j1M4Hamp/eLWecW2qwA95mQpjD3NGxX2O4tpiQbcxk3mIcNPAOeiZ+HI1ih7HYwdzFDDhbkcezXaErw3lYQwMx1n8HnyhsjCxuFcgnWUBTKWwNVq9j6JEI0uHPzlvZlweqyF+KaZBz5VspbKMa2fQp/n+ya7hlXjNtVHhejrHKU4I5KqXBNke4FqxwZuKVIcnXNnMqKus8BD6aEEazQOarv84JV5J+Jwv6m/aHu71dT1gFjbe5m5i+uwLyrF6zYCeQfBzcxGbUwm/i54QhWvPYh/7qZyh3vghUxmww3h7O3Lxpe+1AGn2RGKIKzeWhyPvg/9N1Li2OYv2z5Z9PF1Jh2AtOHJRvgufBuOC8E5JdrpuTpzGXcgLEGzIL6AHGyYDUZ1jJ3MWPZlCk/9bntTy3VQLB6Xfa7+qJghXzvvu6i8MpPDrbksuki2FKA5mq77Vrc2kUDweqtccZk1lM4YJRkzENzbfiCVd6qyGVfw1yrZ/0T1/1+ytYxByq3FiqKRN0ZiED7SocsCJWEol5Mjgy8vmr/gQMH+lRk4J5A53N9Ao2w0pRggXvKykd+9M5i4m9RK3zQZMEncHtwuhdzGTeYBcM9agUrtk9opzHbvB5ExDwSrH7Dcsgw8TuZq5iRMdgwODMt5YNwRBWaLFrT+I/NpuRy5loT0oUz/wzt5p1g2zy2caiP1y1Dk89mLmIG3gstIveqfG9USGswJgtWgWtiLuMGjOZuFvn3VQtWvFeZDAuYu5hRV1fys0aPBoIVjvd5HPfoZTprtKh3Oc9qqnEcDCs6cI1DugEFjcc+j7nVBSDY7NfOQ8GqkOYgTV7D6rZ/2lxdEtU9orXANys3A66Nb7UQrDfMR8HqaGCuw+Nft8wZPX5Hhe5HWSvbCqSSDflSts73YM1ekSMVbiqS5nTX6Ep0RRt4mG9MGMFqMnj7umCFOnkCg7kwVxHDauRWhyNY5fYj8m9ahgz5I3MZN8A1c69qwYplZkq+gbmKOpkCNz8swQpmTuPszF3MMZv48nAEq1ngdzFXMcVq5OeFeh9WMlwbDuL3sDUtpT5bg8i2GaaUv1kF7rVg2wx+TxarQvJ5zEWs6W8RDE+ovV7R8FizYLiN+Ysb5O3HTJzqFyHy80RMmcLcxYxZs7J/DkLp6XC372CC9T4csWWu+wRet30xik2lMgnWcNotiLrXvDW2iAZ0DBWvy+EId6qzP+iS/dMmlzPuAqt5q20WqJfDWgjWZRcXSU0uu5u5Dg9Jko6bsW3SbaO3FysKRb1YVXuhNLq1Qhqpc8Fq22CXRm0Y/RCUa5+6efUGHkybQu3A6lWwWgW+MREEK+RjqTrBKo8EPJZuPPnXzFXEgE7sFeF0AlH4wOdhKPdzmMt4oT8I1ofVjtjgtQbHe5ivqGMVuUtCvd4DJgtW/NlocDB3MSdswSpyuhCsIC5/Dmm6RQvRimsW5TpO4x+zpKWMyUw79VfsNEFzflLS780mw1yo8w+Cvc5xWnOmmPJcrPYYPhJwve1Q81wImCz4ULSfE19b21gHDz4d0v2pmjWs3z3jTckjmLuY4fMU/wIExbNaCFav23F/XxKsuC6z0e1495rZ4QZbKpLqXbYa5lY3eGfa8nHtJY4AK6U7GJNHnt2OzxrdhTxzGzc0uB15OB063DWsePwSEL1ely2fuQ4f391Xnjtha9U3et7mpqq9SJrYMU7XghVHV4s2FB+au2t+JivaPgs8mFrVClarKWU0c6MLQKw1h9oxkfMiC9akhBCsIEj22U477ZfMVcSwiIax4QhWNDzeLHAzmcu4oK5fv+MsJsOTagUrHpchJMcsaJFZMPwrLMEK171ZSNHuoRYmFiNXGY5gtQjJMZue3RuMHA0C4yW19dPb8Ppi7XS/WTRcDZ8WjPBd0q+f4jT8dKPx1yByz8eIw3AvfQ7vpfJ9XsF3T8N2Ia/BFfg7M0ypKcydboA0LgmnTGXBJ3DfjDAl/Z25jAsyhhqSQax/qUqwwjHQBj65YFASx9zFjGV1tl82uu3/DVewylOK3fYHcYoxc53wNLhsV+FUT6XyCNZQEHrd9qeXTk+P+IvwUPFV5xWEu1VPQLD6PPZU5jZu8FU7ypfMDj/oUmBatLfGNoS51gb39ulN43S8zQ0K1imbJ+pWsOK6WscmpzShZfwmVqR9GuhktKsVrBZTyhjmRheAkFiqVrBaTcmFzE3MgY7CdWqCsDAB+WA09mSEzvXf1HSEehqOJkFHeh1zGRcMHz78p1A/L6kRrHLnX+A+tAzhBjF3Ucdi4v4drmDNFPgC5i7mgGCtCkuwmvhbmCtdAPfjP0MZvxXOiGBvw7bK6vww2FvQfu8B24j3GbAmq8jdAO1iBwjVly0i/y1+N9j2jd/z70nM3YCCl2VDV1iFlJnhjlzL9yoTr810uSgBz7ShKLTV3Kex/YHY3Ret/X2PBgol6Ew/F75gLcCpnw8vnpX9c+Y6ocEgQiDQ37tmDggyhfIIxnD0DqcDN7jzdPNCvyc+j7NIC8Hqczs+99bkxOy5rBbvLNsMOf9hbmuDdez1OPZrvr5716u7/jC1a9zzlV36DMCEgnXy5gn6HWFdlSuVrC/92Hvr1XHXOCMBPJQ6E0ewcterEqyQlwwTrx/BCp0/9YKVu3f48H4Rn/J0gSnlTLPAvS2LMIW0BGOYXugwP599zh/iZqpdnpj0e6ifN/yddOV8HclG4nUm8P9B0cvcRR0QJVeqFqxg8nWfxhUxdzEnbMEqcLpbm2gVk8/NFPjXtJge3NNQuGBZ4XWHeUf/AZNHU6FNBytu8HssfS9liMkVLOm6JMNkyMpM4w+raSMBk9uKietkLuMCi5ByHqT9ML5o6p2fY5lctwK3irmKKQunlPwWBOsLmghWt/0/fUawuuzX3jC/WLEsgjU83uuybWEudUdDrb1UmxFW+xcNs7KNzG3c0Oh2XL3s4vDqGO16DLjksV/P3GrLlXde7JywvVIqa9PfKCsK1gk6nRIsb2PTWiRN2zwtHvd/jAgWwdClWrAa+bHMjS6AvNykVrCahWT9THMUuBvVCFY57wJ/Z0mJ8pQ/LUlPTz8e0nmvWvGDJo/YwWeGaPgHc6t7LGISD/lWFcgE6wdE/jLmKiZAp3uh2joLXCuR3u8zFMxDuVH+NCmn+WgmixCBC2+j9AhhGcyJIFr/g8JBjeCIlGE5y+0njT8E95rlOI2ZJVm34NY2cN29p+aaDZi8bMTEvZM+aJCugs4cjUwTZ/fPilDO09EMR84tRkPMAy4hV8+w/BE65i9dMyd8wQri6wmf59xfMNcJS4PL8dfFtc6wIgP79zd1vKfnqbLeGnuFRlOCD9ZX29OY27gB0r0p3Pzj6Kz8MseVF7nnumv71PVjd5YpisZYGkYJrtxUrssowbiNTeWGqif37N+jy6lLscCCASlC7MAGOq56E6zQKVmVCIIV0rWcjV6EZKwDfge4iMoen9B2rlcrfgKG9QV+FjKXumfEUMNfIb1fqZlmJ4+AC4ZS5iomwDVSr7bOAtdKrPPQkwyTYXQiClYEhNbvMgXuRmxrod7XtDYUPVhe8lRhKDNoR/EU/wEjBT/IlkyoMsw/itYMIUU3bf9YWETDFHnUXCE/RzPMqxnucelCsrbr2VTScGHmKT6345VwBSse73Pbn1o2xRbxGA+xBKd14n6z4QgZnAqM0Xcbqm0XMre6BMT0qPAFqxPbxVfeGkfMt+EKBVyLDfl/SqPr4s2G2sxTmGvtufGBGwdM6Rr7mt72Zq0Ac652gGBVFo2xMnkbmw3Fhy7ZdUk2K0ICgM73rlA7sN+JPCM/jrnRBWaTYb1qwWrSz1YdUCcr4kSwVobTCURj04KfOPfcAXHx1htfbKgZtcA2Bvl8N9YjUmYT7wtXsGYY9TMF1GIyjFHTKUfzlwO3h7nSLSAeikEkPvWdYFTIS6QM6xvP639Bk3I7puVIQZv0jBkjyKts9wHDezKIwLXMpe6BurpcTZ7ll4gCLi2J3dKFnjS6C06DDvVrWnTMMXhTnQ6DB2mJtzpv7vXzisLam/SGi4ulBretlbnULSDMx2kiWD32r32e/LjasaCh1mH0eRxfhjOKjoZbHnndtuXMbeT45+75xRO2V0nlbcriMdqGgaDGdJSDYHXqbEpwjuRsyZcmt01eyYqO8NPfKvC3qhV5cOx45kcXmMXkFrV5sZg4G3MTc6xCyqowBGvURowyTGemgGj9VG4LCukJxr57YRAnIzZZQsosVdO1sW5M3GbmJmZYTdwStaN1cl2BYII2ppvtrMzG5HHhCFaLyO9lrnRNenLy70AszYHr7XlMN5qaUf5jGZYjimL5HP528ibc51ebh6VksKTEJRmiwaG2nQRMvk+JhvetZ595OnOra8zyc0TlvcpouJS5iTkYPAgExRvaCFbbS4tnZcfV9kSh4JuZd87iGudnGDlWqQyCMYwK3ATCvrnafipzq1tAaE0KV7DiHqbQvr5tdOddwNzGBfUu29SlWFdhRAjGvEN7OdTodkYn764dFy4fu7NUUUBG20pb7NKULeOk4rUlIFizFYRjbCx3rU2q2Fjx2soHV/6JFRsB4Jty6IzsUS3yBG4Cc6ULoDO3OeS8sNGyWG410hvoRK9VK1jhM2pRT3GtLApkdl7VhsebTXxcRAs2i/wSNXXDRsZiPjKpJjBZT5PXtpkMugm2BtfteEyTWsEK97+7mKu4wDLk9D9aRcNkSPedVpH7Sk1dYlmh2EXD+7gchAkM2zX+nilyr4DvzZah3IT0wclxt5m+EunG5D/BvUpVsLSehuVkEQzVzK1uwRgD2EZCfx7C9S3yX6UP4QXmKuYsnpWf4vM43glHhKEtwWi5bvtry+aV/Ja5Tii8U2wnQT6fvG6eegGHor4ZBG+92x4XWzg1uB0XaiNYHYehbZiZ27jA67Z3YrAkpTwFa1h2Ppft1rq6uuOY28jS/VzLyVO3jnuxqqtIUURG04pbbFJ112Rp1IYqKeumkYriMeq2Ilcq3Fgk1W6fGzdrT6IF26LjbjXTOuUHv4mbxFzpAhCsIW8QLwtW+DQPTc5hbmJOpsBtUCMC8Rioz13MTVTIFA1zwxWs2EmGDvIn/xjKD2RudYvFxO8N9XqRRZ7AvYJig7mJGWoCk/U0vzhM1s1SACjXCeEIVrz/MVdxR+ZQw18zTdx6//WjnEcUIAExGrDA9y0C/wV8vgFlsB/ETbt1GD/PkpaSbRY43Y+sqMFi4lpywmj7aP4lDPxjetju5WhgHYKFHMWdXRPd4CIqy0qCwTvTNqTR7fggbMHq32vyPZ+n+A/MdeIg9esPAqY9nKjAuBcnboFT77LraqnX0QCxVR22YK1xyqOUvuo83QxaHIuGmXYOBPYn4UwHxnzj8V5X3kjmNjpcseeSEeO3VX5d3qEsJKNlRSBYZ3dNkya3TJQyb8pSFpBRNAz8lN9aIE1onaSL8Ox6Izs19edWgXsgUQSr2ZQc+vRmJlgtxmTdrG22iHyLGhHYo7MRNTAwB3R2vwi1Y9TbsCMN+fYyt7okffhpJ0H5htwJ9OdNH4GloK5WhydYcTRcP9c9CLaJKFiV0nosw3KAermXuYpLMsSU4dgeldZUy/Us8AdBYHVlitxlOJ0dXzaMEA1OyLcV/vdnNr01Om/XY4xZTC1R86zrbfILKJOhjLnVJVYjf74V24VC+o9k+F18rpvFJN1EAUcweisIzU9QUCl1vIM17Jz7PI5PF87KHsBcJwxet8173Xxct6pueiiOMl4Hwq/BZfsXcxkX+Dz2Wi0EK7YNve41q4TXbb803HzfgFvZuO24TCn6L6fm7fL8a8KuSnkdqZKYjIahYJ23Zbo0q22aZF0ee8Gauy5PqtxQ+cLiuxafzIqJ6MHw4af9EgTrI2oFq0VM0UXY+wAWwXC3GsGKnyNMhui+ZToKIIo6VAtWE7eduYkW/eGcIUea7m1MBL6PW1Awv7oj02TIsuJ+jgri4Ejmzxf3cZYxRRdbA0Db2hiOYMV6NgvJuokcaTUaJoclWAX+fuYq7sA2BfnY0/sFCgoP+Z4ucN1wbf6Ffb3Pcz7uoSzwB8IVrdlnQXkL/EOpqam63c/TKiRfFOp17r8eDE/gi2zmRhd4a/OH4z6Z4QaX8QfXcXwJvkzMdULgrbZffO3cQll0KuX7WIbHoXiBclnMXMYN3hrHJSi0lfIVrKHIZwG5dLXrxZHwebL+AEL9Fdx2SCk/wRib+v2xb0aOyNxGF0mSjpuxbfLO0d0lUllLbERrYatNmg9idW77rNgL1pW5UvGGksOX7r5UN1M99YZj8OATLSL3pJoOHx5jFnhdhTyHTsSDCSFYcS2uWsEq8FuZm6iB25yoFQ09DUcizYLhOuZWd5gF7gpMo1Laj2TZZw3EgFK6yROkpSNswWrkZjB3MSdcwQqfD4Eb3Ux/DBazyJVkiikvK90nRoKggnvIDenp/Y5nXycYIOLr1QQi6m3YdsyivqLk98Ri4rpDvldBnnDGAnOhG5pctvN8Lvs3KDiVOt/BWryuVTwavmp7LYoPtWXzvVh1LC8pKYm76N+NNfYrwhasYBhoCqcXM7e6xlttvyyc0VUU6Lj21eu2z2UuY8ONdy7hpnaNe11ez9qiLCojaUVtdunyDrd0aXuNZImhYM2+OUcqaCmUprVPu5wVDaEA7vMHAuG/agUrPBSnM1e6AARryKPFAcGKU+SYm5hjFQ1dqgWryHUyN1EDt6SB8z4V7siFHAhGTPnCKqaey1zrhpJ+JT8BkfBwKHmUp80L/EfpOhldRSwmw/awBetQ3sXcxZxwBCvWJbTbfen90uNG2FmNfBKIrlU4qqqUb/m+LHB3G43Gn7FDiB5YTclDofw+6z0qHarJ9wGBP2D5S+zXpfcm42xDMt53Qsmj/OwQOF2uzUWBiVu0qB1BDFiTxykLE6/boZv7VziA4LjYL1bVjTxjeaLwaXI5bqpLj597YE9AZDZjnSrlLxRbhtNjPbZm5la3+DxOsbnG+dGS2epHV/EFBVwDO5ctmxL7bauuuuNSy6RtVQejvZ4VpyKXtMMNZeul0mWtc2MnWJfnSo5NTml86/g7Dh8+rNspO3oAg8DAQ+pluWOt8BA7mvk7RoZZzFXMwWlMkJcn1ApWs462VYFOtKoptvJaSYFvY26iCr68UJPm3oZiCjvceus4ZZhS/gbp+zaU6cDyCIdg0NWaIKin28IRrPLolMDVMncxJ2zBKnCP6m0K5JGAtE7IFPmXsV3hyx3lPOHoKh8XU9tihVlIVrVtWG/DawGegUuZW90Az4+Q7sXy2lVoT3rai7wnTS5bPk55RcGp1AEPxVCg+dz2qM9C0pLWkpKfNLpt3mtBqKld14vHySOTcTgNuCc+t22DFoJ1KbQvn9uxr65Ov8K9bmz6CT6P/a5wRlevuwjy6XG8srDalsTcxp75u2fPnbirSipri97UYBSsZe0F0rJtV0pXt8yLmWDNXZsnla4re+uK3VdwrDiIIwAi7VToBL2p5m0zdozMJoNu3lT+bfAfT4S8PKtWsOprSjC/W42o8AskbiNzE1X+Nnjwif7R+vA7gtjZyjBx/2audQEIvetD6eQy4b0fxJCu9vyDNN0blmA9GwUrfxFzF3NwHb3aNscE6xOZaaf+irnTJVnDuHOsQko3pvdo4jxwLxspcnG1n2C0gedeGpTTF1khvHxSMnlGSBp/2JKmnz28cRq4WeTvC0WwysLbxLUwF7rD63ZOkqetKnTAQzV5NNLt+MxbkzOIuY8rrnSPPA1EZieKFrUjzjgqew0IVm+1rY65jVtAsN6Jwl0pn6EYlmWzx3Fosceuu9ldAXwu+1J5RFwh/cEYivLFtc6PvLOcf2Mu9YNrx7Q143aVRS0Ik3weEKwrtyyQ6tfNiY1gXeVftzp/xz/zWTEQR8E8bMAZIDJCmjoUMLmzJ3Ie5irmpA+SI7i+FOpoC3by8A2zjqIEHwf5uF21YBVjt5+pxciPDUcMBcw/NZj/Wi91Ik/DFPn3g71O8HvQrr79h45G7QNA21IVZC1gKFjNAq+bUWPoaE9T2+bYaOTTVp7X5b6M55/1p5OtJkMjXA8H5VFVhTz0tMBIGQioIuaCOAJWgV+qxSir/LxJ41+1iEk8cx1TzEP5HCakFdPb29i94I2ROg521+h2hrVmr7ehL6/Hfj1zHzc0uPJGLK5xPIniXW00YByNXDI7/2PvzPjZuuZI1NWV/MznsT+7dK766bE9Ddd1NnhsNzP3ugLS9S8U5hjRWCntx7JroIyWzHZ+Ue+2O5lLfbHv9X2/nL590j2jdxSDoIy8aEXBWgGfa1qvkrxr5kiZK7KVRWWELHtFjlTYWiRN65x2CSsC4hjgWhezyH15pOllRzO/YOXnMFcxJ8uUciZ0xl8PdXqzLFgx/wKviz24Svr1+4lV4PaoE6wDsU7WMFdRB9NuEbm9WkwN9r944P6Ha86Y+5hhEZKbQxuxgGvDZFjADtcNdf6XISFPm+9pLGDN1cxlzIG0uNUKD79g5Z6zDBmiu3WIGMgMhNAzmLdQXihiO7UI/HLmhjgCuJ0PlNProb7gVDJ/mRvuifVIPd5/zSb+zmCfHfjsk6P963yLnka3faMW0z4DhgGKmmud3yyKk30366an/7qx2n4ZpPmg2nLANcC4RysI3ud8Hls6cx3X1M/KT/G57e+Fuz9vwBbPdkpNtY4vfJ68YewUusDnzrsSRbnawFpsZPVgg9teylzqkxsfvHHQhdvHvxaNIEylrQ5pdHuJtGbdFdK1m/4l2dY4pZHLoyNaMciSE/I3vm1iK8s6EQTwwBLgwXUo2LexPU0WrAI3n7mKOdah/EAQeu+GOlr83aiEmKKLN0/Dhw//KZTr3WpEBVtfGNM9h0H4/xnK9PNQ60HJsCOYCQLLajwtZustMD9WIeWLYF/q+OvAcCvWI3OhGzLT0n4F+VEVZC1gsjgU+EbmMuZYRe6SXJymrJDWYxkLivXyBUOSTmPuYk7GUEMypG0tXj9q7gHy6BpcfxZT8gjmkjgCFiF5Al4Lxxq5DsYwGjgIv06jsV/Mgl1lyOu5g28zOWfr61pWorW15Cc+l+0prUbRAoZbgjR7nO96XXm6WQqkhLfabmvyOB7CUWG161VR0OF6VRCr7YtmOHDf5YSgCepuSa3zsNpRRyXDcva5bbdIOogcf/WM/D9C3lbLdadSrOKa1aYa58f11XkFzK2+ueyO+emTto36onJLgaLQ1MqKW+zShVvGSxs2LJBWtV4tlawrlTKXj1QUmFpa9vIcybHRKY3ZNO7RXa/u+gPLNhEElrSUbHmEUeFhdizDt7gWo+FS5irmZJkMw0DoqYr+KI+0mPQxjQ5FhUXgH1MjKlAsmU18zKe0mE3cJWwkLmzzj2xy+9IHR3/KGo6YQF08EOzoqjzSIqY8d4Hp9DOZC11xAc5CEHlVa9YD5h9N0s8IHlzzTWpHWOVyELg3cco3cxdTLKLBCen6H+ZHzUvEgPlFi+GtEUMN+pz+pR/6Q/vp0PJeZRG5jbEI4pUuJA+B++Q7I4O8tjHPkNbtJTEU2MHgm5l3DnS4v1TbYT+aoWgFv180u50XN9Rm6mod+yJ33gWQxg5cWxnO6LJf6Do/wy1M6ur6HcfcJwQ+l22RVmubv7OawBY3jpjuMIIvKnw19qdvgPpTM/3bP6Iur3N+EdsScxsfzN81u3Lc1vLDkYwcXNRikzxdF0qtG+ulDZsWSRVry6MiWG3rbVJlS9Wrl9+yaCDLLhEkICwuVrv+S344m5IXMlcxJ1M0/AM6eYfVdPSwg2gxcpXMVUw5/6zUk82C4R01okLOh8BtYK5ixhT/KHHI+wAeyfwiiXs6Q0wazk4RFawmblX2sOA6sygSMkX+rYwhKVFNYyiYRe4CSGtIkY57G+YT6uIO5jLmgMhTvU2Pf9Sc+zLTmHwWcxczMkxnpkC5foxtXSmtoRp74XXYYuLbLCbOlm5M/hM7FdED6+AzT7cK/ItalDteV/I9GIQg/HwKO0XEwWj/VoEL+sWafxYI/2CWcYDuX/A3umzLr79Iu+nAvU2OlosCxWN/FITBuCaX83fs1FGnblb2b3weRwGkpQuE0yEUmyhYldJ9LMNRVVms1jjuaXI5/spOkTBg8Cmor9e0mg7c07DM0a/PlRf1GYSNbsefQWyub65xHlYbTAoDi6HQba5x7G6YmRmfwWfn766ZO6G7UiqPUOTgwtY8ad7m6VL7hgapZd0CacyqCsl6c4QF62o5yNJn87vnJ8Sc/OhS8hOLyD+YrWIkD01+OBr5duYs5oBYGKe20+EXevyVzFVMwe1TcMRbjahAkQudpVezU/90MnMXMzCgl0UwPKdWTPQ2vx/u7QwjX8FOEUn6Q4duKZ4zmKnAsohL49+5YKjhH+x4XWI2Ga4Ot2MutzGB+wDXADK3MSN90CAMtKbq5U7AsI7hmon5izfzUO4CnKIczsuE3oZtF/MXuC+gkILyug5E/j/BpmBwpkyTIcsqJp87UjQMxhH48+He4Rg8+MSSPrSPq1UwpGeJ/GfhTJXvaTg9GO5VT2aa+L+zU0SM80AYZ6YZbg325aD8PRP/H/PAAWcwF7rF58qduni281s1I0yhGEZdRXEgr/WrcTzdWG1bWO+2/33hPGvEg7GhQPZW285vdNsWgsB4IiA01QpVPM4flMnxaaPbfmntKH2NHGvBwim2pMZaxy1aRAc+kuGIPo7A+zz2rc1QP7iVEDu95iycYv0t1L8dztUGbfEgBn9SW//48mVxjfNQk8u2yOM59xfsFPHJ3N2uJRN2V0YkcjAK1vktF0odaxuk1rULJRf8HEnBmr0qRyraUCzN2T5nNMseEQJmU7J7ZJr6zqvcSYTOol4efNAB61Qrjvx54f97jg62ILGYDEvDERV4rFngGpi7mJIunInrWd9RWy+9TR7FlDvf/HLsXLPTaIpfaKd0yGJVIQ29Dcs7S0x5/R8gOJgLXYKjiHC9fhCOuAsYG2VtYq5jxgjB0DgyjGsFzb/mk/vEajQ4wGXM1i1lCYOGWAT+Uy3qp7dhO0a/2FZRsMgiFsQZ/i0gkOHc30KdfmIRDK/C5374233wuQtEbguIrxssJm4h3JvmwN8mZKZxdquYem6GKTUFIxmzYEMxX/MVDhjhHMtDq/LHsoay/RTK7pLhw0/7JTuNplhMA/4C9fNYsM8LNvX5Qb0uWQgAQssEHfdl2GlXu25TjeE0Slwri4IRp4bC357x1thXg5Co9XkcGd6arDMXzXGcKEnq2jpOO77Sk3cGBj3yumw14HMN5PW/eF48JwpmteIcj8P1iih4m2od7fWu3JjPGtGSurr0E+pdzrOgzP4Fwv5AONOkgzV/mcr79h6GOtqLga+gPdgaZtq5Opfzd2r3bMU2tKg6b2Cj21EFbev6Ro/9mSXQ1uURcZVCFesdX1TA8Y/rfV120EiS1N+9c/raCbsrNBWt6Ku43SFd2V4rta1ZKLWvWyRd1j43YoIVIwKXtJZINVtqaljWiCDBzgWIs4ugE/N1uA9nuVMvcDGLShvAPDQ5HzoHX2aK6vPj74SnbEwflhyzKUG4jhbqJegAP0rmPzblWxAnM8FlzDuRIJ4zQdB9hOWrlN5QDTvYcmdQTHkFhIZHy2ltZpErAb//DbYD6E8H/1SGyaCrqII9wf2JoQ5GQTpf1q4OAkKHW4JTWdmpokJ6cvIJuM+oWTSs86cjfIHR4z54C7SBSRf8X/SDMJ07YMAv4L78n2DbnhaGQhbr0W9+sYaGI43YVjAtKHBxKyP8xL/h//H7FpE/BGLpSxC474CIfRLsNivUiVlMbjCbeLdZSMF7soD3U4xey7Kpa6yQbnyJG+5zMWDoR75HpKU8bDGllGkViO3cc6GtmFJmQ/19GEx7wfqSR30Frht+jtpU5WDAdZXYgW+ozRO8Lvu0JrezE0TcZ+GMMmphGMgHR9gwsi6O5OEoLAiXz8CeBbsNhMa6RrdzMYjPy0HIzPW57G6v2zbDb3kun8s2x+u2Xwbf88HnahAnO+G4J70ex8fo/1oQp+gb90QNJ2gQiipMH/qD8rqnGQQVK9q4BYXg4lnZv1lSYxsC5VsJZdoE5f8IlOE3KCCxzJTKIlKG7RAFcqBNQl0fBHsR6vYusDZorzd6axzeeqhvSOtFjW6bB/4+E9I+Hep+VoMH2kKN/Qr42/WQh23QDp4B4X0wIDLxJYnaFxXYdvwjshjd2N5QNzErseL4gGj96czuKVvGa7hHq+yno1BasqVOal2zQGpfu0iq3zAvIoI1e0WuVNxWIk3vmK6LKZzxAIjUU6BDkWcR+KvgofUkdki06OihyZ1gwdAei3VguH8iiMxZIDJU7SXb21iH/lHoeE02Dxx4Bm7Czk4VSfpDx0+E+mmGugn7JQLa951P7jboKI3BaX7sXDHBajKMhI7Se1p2xrEN+0duuReg3K6wpCWfjdu2sFMGDQogFuxmJ5ZZMKIOy9efF26nXgL2IJgX3AbIYuSqrEJKPVg3iNWX5Lag0XTHgH1XBgL/EXaELcbk+bhvLo5QaxV0BvNjHjbwDIx4m2HipsH9aykIpcfh/N/KQkAhXWrN36n3izK4Ft8F361mIzczc6jhr9nnRGfmhdXEXRzs1M5Y2fci1/8M8V8z/mvRL279Zcjq5iCU5Zsgau+ypPFLR4jc9CwxZXhqDIISBQtcO55AnnrnXa1hebDr7yFow9Vq92zFl3NQnhMyRe5heZQc0tn7XL0N84HnhuvmGryemKuY4fMU/wE78s0e55XQ0V8NHfo74PNl6HwfDIxu4hq83h3zWBqOgKIwwHShWAqIl2UXF8uGPwdEo2zy//2CFP+PogSPkbcmAZGCogd9Kp0rWMP0oM9r0WetY19jrXN0Xbq6Eb9YUz8rOwUEVxOIthXQFjpB0N0H9hqU0Rd+UVcsjz7L5aZQFtG0nu3AX89F39czawtyvch14/9EkS23FfheQHDjSKpakYoWGP3FkVmf27atoTY34dYpf0frvlt/O337xNvH7ixVFKChGgrWyo4i6abOK6WWNVeDLZCWbfq3lL+uUMrScGsbea/VtmJpUtukZpYVohcYtCczzfDXDJNhTCYIVHjA3YZvwb/vkGnbcUXDhyc8iL+QO64CNx+3iLGkcYNw1IAlK2xKSvr9JHNQEmcW+RwQeB6wFWYT96LcGQjiwR2soT8sI8jP+5CXR6xiCk6Hmw7C5HytRl/ljgd07iEP/4YO/11gn8sdcA3zgR3GHh3wN+FcLdAGoLPEWUf6R5CiOvo6wpT0dxB4L2ndIZc7y36fX0Cd3Y9t3mxKLrcMTT4b/n4yrsXDER4Us+n9+h2Pe27iiCh+B8rIC2WzH9uPXP4K/nubXyTz31pFw9XpOugg4HZOUK/XgDDdCdffC5A2eVopTv+TO7VQPsHkS60Fyi5Qr9C+3oe0PGsx8bfA7+tGpqVeY01LCWmKklngC7JEfg/ct54HH3Ad8t9iO8Y8YX1reZ30NiyrQJ5YXX8F5fo/aLt7wG7ISku9yCwm/R9LqqZAuZ0K7fENzGvvdMWbBUQtlmWg7lh5HoQ2st8sGhbAp8iyrisyjMnjQVh/hm2gd77UGrYrLAe5DAT+I6jnXRj0EKeiZwxNMeEzgb0gxZdux+FLn5FDkk4bAc9ys5g8Du5rN0F5vYrtP5j2gefDaxLy8Taca4KcsRiDI2c+l71r+T9LpRt7CD1/Bz4/rA58LA1FFArQH1iv72hlKHix3FDwNNc47lrsto2uG5se8xcRasERdq/LvntlXfl3wh6F3pI4bRM/bAv+FxNatgX5RQUKVSifplrnHbj2lRVlYtP5YOcfp20bf+eY7vBFaykI1qq2ImnFhstkwbpxzVXSppZ6adTaSsm6PEtRfIZqslhtLUKxegPLAtELs4m/OntYyhvwYPsSH2z4wMKHG3YasAOh9GDTyrBzgg9j7JjIHUqB/xA6ei/Dw/Jeq2BYDp3WWiaUggIe2L/JFLkZ8KBeBj62gq/98BB+D8+F+cLOhNajRj3N39Hyl6HccRG4r+WOq8lwS86wlMuyhOQhLKlBAZ3RzJFpKQuhXG6F/LyO5wjUT7Q64Hg++NthaB9vQ3oehXRshA74v+B3K0tmRLEMOX0QnPNOTIfWeUZ//o6xv72DyPkc/v4mfL4E9jScF6ctPg8/vwH2GbYdf/kHd22gT7n8wE+GkKybDeetQsoi+/BB34lT+VpXSH80DOsgcN3InXMoL/vwwVgXW1lyg+E4ELt78/5v4Pf5AVM6XzTs+zz1yI/IRWy/bwyGhHUZyzxH0npep3DdfQpt40bLEG4Qy75uGDGUt8B19IKcToV8hGPYnvzPSr9vaE8fZ8IzAe5PL8B9eb9FMIBxL8F33wo8y+XnXZBtQv4++AcfuyyD9fNSwFedV46CBEfKlDrjZMoWmJIq76npcXzsc9s3NblsOWrXUOoJFFz4wgKFmFLeyfwWmD4sT0n2OG5rctkL6+rqEmqbomPS+mDrn6Zvn3D/mO4SRSEarJW02KWpm8dI6zZcKW0Cwbph7VVS27qF0owNkzSZFoxitaC1UBrfMnElrsNlySd6gKOZ8IB6AjfRj3VnBwUAPlyxwxnonOT5N/cPOsKrWUgdlfd/g+Rj8eGLD2F/51X5nJE2uePK8uMAgQACvJ4l9ZjIUzUF7ikb5AePj20+vhfj/g445EXk72NJjTjyNE8hpR46al/j+XunTwvDTqDc/lg+e1rg78F2QrG8WMfyC+g8NuA0dJYVXWAxGXbg9aGUdj0Y6zjvZsk9JunGk39tFg2v4LWm5C/WJufHxO1lyY0IUF4bcN2o0vkTyfA69AcC4t4FkTaLZV83ZItnDLAIKW14z0ZTykO49sNn5Y/vVaE8y/H78j01jX/NbEyaAVnQTYcWAxU1uux7cXRQqUNO9kP7XqT6y6u51nFvc43jIgzWw4o07pH69esP4rub2oSy9WwDUPcfNrrt6+vdeVEZXNAtLY+2nDEtTNFa1JInzemaIe/BiqOrKFgx8NKCVlzHGt4IK65ZRbE6oXXCKhCrcRG8IRacx/O4TvUlfNApPcxibfLD18iPZck9JlaBb4yUoAnXUMCYTSmLWVKPyfli0u+hbg7osROOZZwpcjtYUqOGNc0wEjqq+/D8emyz2FHEtGXh7wLfhdsNsaTrCovAPxipzrQWJotpgetmyT0meK2YBcN7eL9Q8hdrw7KGa/lultyIgNHK4Vy3yLNVFNKQaIb3Rf+93rAulkHvjoTVaJgM98hXcH2uHtslpsn/Ui3lI3xupoupA1jSdUN9tT3N57F/rbf1qXoxHGHENa4oTnAktdFj/6apxnG/r9ZxVYPL8ddEGE3tDQgwk1duEzS6iobTh3EktceLim/gmrkP2sZc33R7Kis2Yu3DHadN2zb+PlzTqiYQE25pc0nnTKl9fYO0gQnW1rULpGUb/y051uRLI9WuYwWxitOAJ7RMWEFi9ejgQwqnO+rxgRoY8bIak4MfYTUlr9KzYLWI3GUsqceEBct4RY91g2VsNhluZkmNKv6I1VwtpOPlHHkUI/blg3XE2t3hTHldKK+b6b9KWEzcI7oWrHitCNx6ltxjMnz473+bISa/pcdrBQ0FuBnaBUtuxBjO87+1iimdKFr1WhZamn8mw0C8r+41c9yprBh0g3XwmadbRL4hMy3lA2zTsa4TfKbi/RLTAmX3HgZVMhuTjCy5usPnynNjRxw75b076n3NUJyiMJED8oDhCKN/vaPzOZ/bvrmxxjGjabbzrNaS+IiurRafxzHnunnynrGK5ZTohiOogSBeKFDlaMEex9uNHvttKFIb3bb/U7uFUsJz839uPnnajol3jtsZevTg4jaHdHmrW2pfs0gWq7KBcG3ZVC9NXD9WsqhYx4rTgIvaiqWJbROvpWnAxybdmPwn6Bi+qsdRvIBgxU3qWXKPiUUw3MSEg+6MTXMMOpAFjhpAR+wFXY6wYgdc5OeypMYEbLsgDC+C9PwXxVe0O4R4LiwHWVyJ3NsWIWWlWdT3vqoBcHqqngUripARIn81S+4xkaeMi9zTep0pIo8Yi3xUXvAYjcafWQT+qkwxJWLT5/Vm8stAwXCXHkdakQzRMDgzzdAEz7TX5XsGWDSX4ARGo/H6gLbxrDWN/9c/zuJ1P00UOuLLbrqkJCDMepk/MI2WwWliaZgnHDVEUSpHk/0ucnCRfwsS+H9jjfMtn8f+qNftWNtUkz/NW207/+oZ+X9kxdUnAMHacfOlpayc/GWlZEvgf/id3oYBqGSrRXPKAlA2KF+0nm1LqZ4ibT3bAW6R1PMFhTwN2u34psnjfAkjZcPnAm9NnqPRnacqgnif5Kb7bvrDrB2Td43fXR60aMXvVXQUSUs7/y21svWrAWtfu1C6rGW2ZAlxHWv2yhyptLNMmr51OkUDDhKMhmoWuP/gOkl8oMkGD1PszOLDzW+B3/0WeOB+9/1QjB37Q5891t+gwYMcDf+XKXKS9ezkoSy5xwQexlfietyAD9l6+Fe23ulRYz/0KecDrUdeQFwdBqHwF5bUY8LWFz8pj5b08N373GHVR29jvn54DpanHmWKf89M480sqTEF14dajXwFlO8W6BDK2+CgYZq17BSiL6wH9M3Wp34K7XMvrqNTu+VErLAK3OofXCesjr+3H7aBsNtYDx8/9O0/3w+vFXwRAB1rE1fEkhsUUP/bMOjS93n4Ph9HSz/WZaim5Ec2dp7eecR19eY0rpYlNSpkwPUJbfYuLEtME45GKrXrRDGcemv2B7bS7YvqLFPKmSOG8tVwX78T0vxFoN1g+9f6XiVfR+AbP1Eo44wFs5Ccj3sss+ToHhAnK1GwBsTGNbML5BEltEBHHkeZsCOPwWVwq5AfWuDvfkPhF+j4H8n802t7WOA8CoZpCMW+Oxb8Bs6H6cRPzB9Of250298H4fKSz217VB45ddvrQUBNWFRtsyyptXOsaPosINiWQxm+D+XyNvz8JpTRm1BubzR67K+j4c/4NyjDN/E78Ps78Pt78N334fMjsE/g5898bsdB+P9X8Pu38Pthv1D0tzF8WYD1hG0Gt5Xp2ZYC9RYwpXaiVPc97bvv9vATaAcopuV0eezvgWh+EdL3EPy+sdHtvMzncVbWu2zneWtsJ7HiINRwzzNbTnR3T22fsLtCKms7tmgtbXVIo9qLpZVtV30XcClguL3NypYrpcK1hVLm8iBE63Kw1blS8cYSqXpb9cUsSUSQpJuSy7PSUpdCxxuMuxFsI9jtFhP/DHQAnmeRYe81m/hbsVMI1g6/bwBbiSOaFpG7HoTiUotouAa+vxjNKnJL5L8J3HXQOV4G31kBx6+DTmgr/G0r2G58I24xGfaB/6fhOy/C9w/A916BT3y4vgOd1w/Bz32hPGAzBb5gJBwHfnB7mbfBF0Y/fhXS/DL8/BL87SU8F/h9AX5+HtLzDKT7cUjLI/D7A2B3g91hNhlu7Wnwt9vAoEy4veDrLvj5Hvj7/ZD+h8E/ls+T8L9n/X7hPJAPOM//oPPwJvwP8/IB/L4HXxCwpAYD7rXaAp2Zd/x54F7EspLP6S+7W3rUx0b4fS2kAeqEvwm+twx+vt4s8NfC70uxPgJ1w2yJPB0M/o/ftZr4m9nxLeAL62eXfA6R2wd/ewZ8HJDzAuUKHd+P4f+PnmscoLvNpnG7FrOJmwhltRHSCmnmvsROG4p+v5D4Xhhhp+57808vDPwe+I4sduTjvxupgjo1bIPyqM40Doz6HsJaAfVXNTItFa8vjKD9FrQhbKsvs/aL1+N/oP7vBbsd2sdOq4nbLLcN1sbk9gXXds9r/vt2BX/DdidyN4Cv5fDdVfDd9XBsG/jrgp8D1z60Y+4p+N4LYHjdvwG/+697OH+oo2WQ9kkgzl6U/cG9C/L0GKT7PvAJeeC3sbYN1wfck0TeB/V9FXznX2AXwd9qLGlQpyI3A743Df52YcDA33RIz0w4xgWftfh9MDgu5Qo4bhHmG/MK/1sNn63yueAeAvaA1QT3FriHgmB4CrdFYkmNGjjaak0zjIayuQ/bNbZ/yEdCWqboF2hwL3Oz7Osa3FsW2oYH2g0uIcDr73DghUjgRUfQ9yr4Lh4TeJkCvg6Cz/9itHyrYCjFqcnstHFFk8sx2Ouy5Xur7bZFrjxH4yy7s8FlL2xw5xUvctnKfJ688nroxEPnflRjdd5YELjjwSaDALkQ920Fq2502zxgs5s89nlel+MS6PxfCt//NwiBK+F7V4MoWARCxwd/a4bfr4H/Xwt2g8/luAm+czN8roK/r4W/rYffN4HQaYXf2+F33PtzKxzXBbbd67bthN93yeax7wa7lRn+3C1/F44Ff2vAlsHvcE7bv5o99pn1kH5vjd3mrXH+zVuTM6jJ5dTlTAE9gCPKi6BdQBkZFlbbkhbPKhgA7eCMa+Y4TkfDn/FvzfA//A6OPkL5p2JbgjozgegTvTWOsxtqbX+pd+Wft8idd4FvVm4GtJEs+F+ud6YtH+qnpAHaFnxndHOtc6Lcllx2Nxw/1wvtBz6vaKxxLARrgrZwHdhy+Ptqn9u2AX5uhe9vgXNu97cH2y2BdgDH7cAtmuBvHaxN3QCfXq/bUQeCdJbcDqCtN0G6mqvzBi6f44ibl0txhyRJx8/eNWv5xF1VUnn70UVrCQjWCe2V0tr1V0qb1v5QsKK1r6+X5rTMlMzLM5VFKrPs5TlS3jqbVLy+5OCc7nm62DcsUcA9KHEvSvZrJOmPHatzzx3wi78NHnwiPHBPxjfRuAWM9ezBIT1ocR86nH6VYTozJVtMHQAP9lOw45uZlvYrnDaI/8dz4V6YmD84BE2LN/LoQy4vPA/mwzLk9D/itFXMC+4vmz5oUMhvxaCzf6rVyCdhHoYPH/5T+FMsRg+OwzxhXrBczcZUo3nYwDPY/3SLvNZVTD4XBOwk6BguBEHUZRYMT8DPb0JnDgON4B6s3/o7u/5OoNz59W9F9DEI+jdAfDxkTeNWQT3UgmXifqzMfVwjTxsdwg3KTEvirIMHn475kq8R/56O0Wxj/fFaxOsFr1Vs63jdY1tj/w8JzBfuvQw/6iXSaX+8J7A0xQxMA4hnDFh2LwocuZ0noMkjlXhtD9X/dNee4LPCOjTJAvcdfDGyBO5Ru80m/lmL/NIV70Xcl/D3Q5jHnvcq+e8C/wEYbgV3W2Ya12wW4X5n4v6CzzrmniAIglBi7i2eBeO2V0gVnQVSeYuyYC1syZPmds2UWjYs+i7gUk/DUdabW66Q8tfkH3GUNfvmHMm+0SGVb6r43/wd8zPZ6QmCIBRBQYbiP9uUmmIWk/7PYkoegR156ODZrKLBYTEmZ2ea+L+PFA2DrcPlrWj61p5lREID7XwBzjRAsXMkQzGEohZH+Pwjfb3N/7/A6B/aD0b/FHxG03CUEYTcCpbluEV+sTpo0En4AtZs5M7JNCaZ8V5lNnF2vFdlmAxZI4Ya/pox1JCML3vZYQRBEEQoXHLb7Bnjuyq/rtpaKJW1/Hi0FSME/7u92h8huJdYDVjH2kXSv1o8kvnmkbI4/YFYXZEjOTflS+Paxz18+c7LTey0BEEQBEH0AGdqoIgDMfnNdzMJehmKUXk6KfzfInAfgO2HY+6x+pdA3A0/3ws/P2QR+EfNIi7j4F/GrYTgf5/JI30ifwh9o5hFP/I0fPjE32Uxq3DOSBieCz6/sJoGBh37gCAIgujDXHrL3LwLd4x7Z9T24h8EY5J/7iiUmtsvkVrXLFAUq2i4tnXTxkXS1I0TpIyeU4NX5UpFLcXShLZJ6+/bf5/u1tERBEEQhB7IGGLIyhS5/TjyyMTcDywwago/P25JM1wF4tOKAhen1A8f3u+n8qwEMPwZp5liMLh048m/xhkI6YNOO8k8bMAZVlPyUBC655uFlHyLaJhiMXGXgbDFeAjdYM+CuD2IYhYFLFqkpyVjXs0m7nJWBARBEARxdBr3XPnnadsmPDWmu1QqZ8GYMODS6I5SaXXbAmnT6h+vX+1puC/r2o1XSRPXj5FFa/baXKl0U+lBd5d7NjsFQRAEQRA98EcZ568CAXcIIwX3FnUoXlE8WoWUJ7MErgpFKDtUUzCKN0bRzjJxNhSRFpHHwFvvBEZiIyFeUYRbTIbHUWSzZBAEQRDE0dn92O5TqrundkzcVSmVd+RLxS02aWbnRGnjuquljQoBl3qbPAq7cYF0yRa3NLFtwv/qbr3EylwTBEEQBNED/76f/K1HEoTyNF0x5TCI1ma2VjuqYNA2SF+5ReQ6wT6R06kgqtUa5hlE8dfpcRzJmyAIgogBkiQdN/9Wz7/Hba34pnBznvTvTo/Uvq5eUaAqWdv6hVJXx5Kv7r+/+3zmkiAIgiCIHmQY+QoQa2/Lo6cKYo79/Q2zmFrCDokpGeLpg60idzkI6FcwbUrTlkM1XC+LotwiJNPOAQRBEETo/HPX/Hz3zmkf3bj5Mqml1/6rR7Ouzc3Sjq03XcrcEARBEATBwK2nLCLXkJWWcpitSf2R+dex8vf/w5Ssu4BEuL2SVUipB8F6EKf0KqU/FMOgT/B5NXNPEARBEKHRvXtl87auxYrCVMk6Wuul9rbmp1+XXv8lc0EQBEEQBHCB6fQzQex1H22EUh5ZFfhteWLS79lhugSDPmWK3AtHGiEO1vzHc6uZW4IgCIIIjb3da//SurH+MK5hVRKoPW3juqukLR2N0q27Vo1hhxMEQRAEAYww8X8HgfY8G1FUNPl/IFYx8i87TNdkpJ6ZAul+LBzRivvNWgS+i7kkCIIgiNA4cODACR1tzY92tBx7DWvbpoVSe2vjgddfp9FVgiAIgghgFQylmWn8B0ebQouiD4TbA+ekpv6GHRYXWNK4QdY0/tUjTW8+lvkFK9fN3BEEQRBE6GzpXLpo+9ZjTwvu2twkdXRc42WHEQRBEESfxyJynkwx5dujCTqMvJuZlvIWRg1mh8UVFlNSEUb8xT1clfJ3NEOhbjZxW5grgiAIggid22/fmNW6cdExpwVv27JEuv2WtRXsMIIgCILo01hM3GUoVI+1h6k8yiimTGGHxSVmgd+mZmqwPLJsMqxlbgiCIAgidJ544u7ft7c2vdeyYYGiUEVr3bhQ2rh+4UcPPrhjEDuMIAiCIPosFsFwJU4BPtb2LyhW4fOhEqPxZ+zQuMSSlpwtC/MQR1lx3a5Z5H3MDUEQBEGEjiRJP9nSsWRHZ1uDolhFa2+pl9pafP9lhxAEQRBEnyVD4C8KRqyi4ffMJm4iOzRuSTee/GuLwD8b6lrWbAw0ZeLdzA1BEARBqGNzx9LLdnQtURSraLidzfatN9zFvk4QBEEQfRKzwBfgHqvHmgaMhoIWRN771sFnns4Oj2ssgmED7iGrlFclk9e8pvGHzSKfw1wQBEEQhDr23LZx3Ob2RnnrGiXBurndK+3oWraSfZ0gCIIg+hwgwE6xiNwrwa7llKcDC/ytcGh/v4f4xiwmX3K0SMi9DUW9xcR/YD17cEIIdoIgCCKG7N27fuD6tVd90bJhoaJg3drZiFOC57GvEwRBEESfwypwV+ScHbxgw/WbFoG/iR0e92QI/HiMeKyUVyUbKQdc4veywwmCIAhCPY899tiv2lubXsfgSkqCdduWZgnE7Fj2dYIgCILoU5wvJv3eauL+F4pgQ8GaYTIkTMChTJErwVHTTIW8Khnm3ypyl7DDCYIgCEI9kiQdv23LdQ+1tyxSEKxXStu3LpG6ty2vYl8nCIIgiD6FWUwqwYBDwYo1tEQTrCBWy4JZu4vG1u9+ZR6S9H/scIIgCIIIj8725pu2dPgUBKt/D9Zbbllbyr5KEARBEH0Ki2i4xj9iqCzQlEz+vsAvYy7iHrPAXxhslGB5/1WBu4MdShAEQRDh09bSME8pUjAGYtrc3izt3bvJzr5KEARBEH2J/laB2xlssKWA+UUb38V8xD1mE7cgmDLAUWgMzgSClWZmEQRBENqxe+fN1Tu6rlEUrB2tjdKdd7aPZF8lCIIgiD5Ddmrqz60C/1AoEXLRcL2rWeCe+9vgP57IXMU1KL6DEax+sWrYP3z48F+yQwmCIAgifO7a01axpaPpR1vbbFp/tdS60Xv4vru60tlXCYIgCKLPkJ6cfIJF5B4OVbCy9a6HLCbuL8xV3HL+WaknW4Xggk6hqM0QksezQwmCIAhCG+7Z23ley4aFX6NA7S1Y2zY1fPnAA93nsq8SBEEQRJ+hrl+/43A/1VCnBKPhMTiVlrmKW0B0F40MIuAS7j0L330ART47lCAIgiC0Yfe9a07ZuPbqd3tvbUOClSAIgujrWAVuVahBl9CycFRW4F/OGjDgD8xVXGIWue3HEuwYGThL5L82D07OYIcRBEEQhHbs2bPyhJaNDa+1bfrh1jYtGxaAYPV+9vDDOyk0PUEQBNEnMYuGuWpGWNHkUVbB8C/mKu4AsXpBJghRFKRK+QtYDuQzw2hoYocRBEEQhLYcOLDnhM62xS8eSbA++OCes9hXCYIgCKJPMcLE/x1FWWaaslg7muHepSD4PvpHWvLZzF3cMHx4v59aRG4vTvVVylvAUKxaBe4RK8//lh1KEARBENqyb9++n27ZfO2T7S2KgvXzRx7ZPZx9lSAIgiD6FLbTTvulVeD/G+w+pL1NXtuZZnjEOjy+BB3k+aJjiVUMRpUpGj6yDI0/QU4QBEHEEZIkHbdt6/X3drTU/0Cw0hpWgiAIgsCpsXyDmnWsAcNRSIvI7UDxy1zqmhFCUl6myH2NI8RK+UHD/4EdyhAMpewwgiAIgogc27dcf1tH648Fa/sm71f33rv9b+xrBEEQBNHnyDjLMMwqcl8eTcAdy3A9K4jA7VlGo66DMGUYk8yQ3g+PtpUPrmnFEWezwNWywwiCIAgismzdcn17Z1vDjwQr7sN6/93bRrCvEQRBEESfxCxym+T1mgoCLliTRauJexiEXhpzqysyTHwhpBPE6pGF+XdiVeQuZ4cRBEEQROTp6rhu+eZ27w8E68Z1V0ntLT7pvru3WNnXCIIgCKJPYklLPhvE2hfhjLKiyetChZS3MwRuAnMdc0qMxp9ZBb4OIwJnHUWsYt5HniWPrF7BDiUIgiCI6LC1c+nSLR2+HwnWze1N0p13duSxrxEEQRBEn8Vs4n3hrGUNGIpCeZ9Wke9KH5Ic0zgRGSZDlkXg78XR36OJcRxVlf8v8BexQwmCIAgienS2Nzds7Wz8gWBF29q5WNqzZ1M++xpBEARB9FnShyX/ziJwT6rdl7WnZYKhH4vIf2kRuTW45ymc4jj/mSJLSUm/n0AaLGbB0G5NY6O+vdLX0/D/kN7PIe+6GRUmCIIg+hid7U1XKQnWbVuWSLt2rS5jXyMIgiCIPo1lSPJ5IN4+OdrU2VAM14SytbGHMkVuj9lkcFlNA4cOHz78p+yUmpCenn58upA8xCwmu0Gk3onnltfUHmVUFUU1pi0zjX8egzExVwRBEAQRfTo2+RZ0bW76kWDdvnUJ2E2j2NcIgiAIos9jMRnGgNA7HO561p6GwhFHMv1rXPnPLSZun1XkFpsFw1SrYEi3Gvmk9OTkE+D0xxqF7Y9rUnONyX+yCCnnmU3cRPDvswj8A2CfBc4BIlQxHQHDvDEhvS19WLKB+SYIgiCI2LC5Y8ml3duWSihaWzcukNevBgRrZ2fzWPY1giAIgiAAHAlFUaelaA0YildcM4qCMRs+QWh+CyL2A6vAvQznfRg+d1pErtUicGvgcwX8vgpsI3yvC36/xyIYnoff34Wfv/L7GSj7O9poasACU5Xh8+NM0TAHstrfn2OCIAiCiCG33tr62723tzi6Oq9d2dHW9Prmdp+EU4R3bl8irV9z9Xj2NYIgCIIgGGaBn5qZxn95tD1LtTAUmrI4BtGJ50JDUfkjY/8LBEgKRqD2tIBfq8jdPmKo4a8smwRBEAShLx555J7T77xjfdHWzqUbu7dd+0F7e9N89i+CIAiCIHqQnsbZrGncq/JaTwURGA8WmP6bmca9Yha5GVqvnyUIgiCIiHHPPd0pO3eupLUrBEEQBHEEMtOSOGsavyUwuqkkCvVofqE6EIX2h2ANFwxJOo1liSAIgiAIgiAIgkggjrOYuOmZAvc6isBIrG3VylBU49TfTDHlI6vI3YBRiVkeCIIgCIIgCIIgiEQly5RypiWNa8pM4z/AabZ6GXFFAY0iFdNjEbnnrAJ3hdmYamTJJgiCIAiCIAiCIPoKVlPy0EyR91oE7nWM9ItiUQ6EpCAmI2FyoCZ2XpyqDH97EyMJW018YfY5qb9hySQIgiAIgiAIgiD6KunG5D9ZheTxmSK3HcTqezjC6d9mhglYDURsIIpwYKov2z/1WxDLL4FIXW0xclXmYQPOYEkiCIIgCIIgCIIgiB+SMdSQbBGSqrJEbrFF4B8EMfke2Dd+EesXmv6tafyjoyhCexv+D8Wu/P2z/cIXxOlhsA8tguEp+FxnSeNqrEJqerrR+Gt2aoIgCIIgCIIgCIIIHuew5N9ZhiafbTUaHFbRMDlT5C6ziPxyELNb4XOvVTA8ZBENj1sE7gkQtv+xiNy98NkNf1sLPy/ELWhwiq/ZyJ1jFrhTweVxfs8EQRBE36Ffv/8HjIKzrdzeK4IAAAAASUVORK5CYII=;" vertex="1" parent="1">
          <mxGeometry x="1386.79" y="320" width="196.42" height="56" as="geometry" />
        </mxCell>
        <mxCell id="pp0nRFBPgVXfBRocRRxw-27" style="edgeStyle=orthogonalEdgeStyle;rounded=0;orthogonalLoop=1;jettySize=auto;html=1;exitX=0.5;exitY=1;exitDx=0;exitDy=0;" edge="1" parent="1" source="pp0nRFBPgVXfBRocRRxw-2" target="pp0nRFBPgVXfBRocRRxw-2">
          <mxGeometry relative="1" as="geometry" />
        </mxCell>
        <mxCell id="pp0nRFBPgVXfBRocRRxw-53" style="edgeStyle=orthogonalEdgeStyle;rounded=0;orthogonalLoop=1;jettySize=auto;html=1;" edge="1" parent="1" source="pp0nRFBPgVXfBRocRRxw-28" target="pp0nRFBPgVXfBRocRRxw-47">
          <mxGeometry relative="1" as="geometry" />
        </mxCell>
        <mxCell id="pp0nRFBPgVXfBRocRRxw-67" value="" style="edgeStyle=orthogonalEdgeStyle;rounded=0;orthogonalLoop=1;jettySize=auto;html=1;" edge="1" parent="1" source="pp0nRFBPgVXfBRocRRxw-28" target="pp0nRFBPgVXfBRocRRxw-47">
          <mxGeometry relative="1" as="geometry" />
        </mxCell>
        <mxCell id="pp0nRFBPgVXfBRocRRxw-28" value="" style="rounded=1;whiteSpace=wrap;html=1;strokeColor=#6c8ebf;fillColor=#dae8fc;" vertex="1" parent="1">
          <mxGeometry x="420" y="221" width="200" height="90" as="geometry" />
        </mxCell>
        <mxCell id="pp0nRFBPgVXfBRocRRxw-29" value="&lt;font color=&quot;#4d4d4d&quot; style=&quot;font-size: 14px;&quot;&gt;Data_Ingress&lt;/font&gt;" style="text;html=1;strokeColor=none;fillColor=none;align=center;verticalAlign=middle;whiteSpace=wrap;rounded=0;" vertex="1" parent="1">
          <mxGeometry x="490" y="230" width="60" height="30" as="geometry" />
        </mxCell>
        <mxCell id="pp0nRFBPgVXfBRocRRxw-30" value="" style="rounded=1;whiteSpace=wrap;html=1;strokeColor=none;fillColor=#009485;arcSize=50;" vertex="1" parent="1">
          <mxGeometry x="476" y="262" width="10" height="10" as="geometry" />
        </mxCell>
        <mxCell id="pp0nRFBPgVXfBRocRRxw-33" value="&lt;font style=&quot;font-size: 12px;&quot;&gt;&lt;i&gt;Success&lt;/i&gt;&lt;/font&gt;" style="text;html=1;strokeColor=none;fillColor=none;align=center;verticalAlign=middle;whiteSpace=wrap;rounded=0;" vertex="1" parent="1">
          <mxGeometry x="486" y="254" width="60" height="30" as="geometry" />
        </mxCell>
        <mxCell id="pp0nRFBPgVXfBRocRRxw-34" value="&lt;font color=&quot;#666666&quot; face=&quot;Tahoma&quot; style=&quot;font-size: 11px; background-color: rgb(245, 241, 230);&quot;&gt;Python Operator&lt;/font&gt;" style="text;html=1;strokeColor=none;fillColor=none;align=center;verticalAlign=middle;whiteSpace=wrap;rounded=0;" vertex="1" parent="1">
          <mxGeometry x="462" y="275" width="114" height="30" as="geometry" />
        </mxCell>
        <mxCell id="pp0nRFBPgVXfBRocRRxw-52" style="edgeStyle=orthogonalEdgeStyle;rounded=0;orthogonalLoop=1;jettySize=auto;html=1;" edge="1" parent="1" source="pp0nRFBPgVXfBRocRRxw-37" target="pp0nRFBPgVXfBRocRRxw-22">
          <mxGeometry relative="1" as="geometry" />
        </mxCell>
        <mxCell id="pp0nRFBPgVXfBRocRRxw-37" value="" style="rounded=1;whiteSpace=wrap;html=1;strokeColor=#6c8ebf;fillColor=#dae8fc;" vertex="1" parent="1">
          <mxGeometry x="980" y="221" width="200" height="90" as="geometry" />
        </mxCell>
        <mxCell id="pp0nRFBPgVXfBRocRRxw-38" value="&lt;font color=&quot;#4d4d4d&quot; style=&quot;font-size: 14px;&quot;&gt;Data_Store&lt;/font&gt;" style="text;html=1;strokeColor=none;fillColor=none;align=center;verticalAlign=middle;whiteSpace=wrap;rounded=0;" vertex="1" parent="1">
          <mxGeometry x="1046" y="230" width="60" height="30" as="geometry" />
        </mxCell>
        <mxCell id="pp0nRFBPgVXfBRocRRxw-39" value="" style="rounded=1;whiteSpace=wrap;html=1;strokeColor=none;fillColor=#009485;arcSize=50;" vertex="1" parent="1">
          <mxGeometry x="1036" y="262" width="10" height="10" as="geometry" />
        </mxCell>
        <mxCell id="pp0nRFBPgVXfBRocRRxw-40" value="&lt;font style=&quot;font-size: 12px;&quot;&gt;&lt;i&gt;Success&lt;/i&gt;&lt;/font&gt;" style="text;html=1;strokeColor=none;fillColor=none;align=center;verticalAlign=middle;whiteSpace=wrap;rounded=0;" vertex="1" parent="1">
          <mxGeometry x="1046" y="254" width="60" height="30" as="geometry" />
        </mxCell>
        <mxCell id="pp0nRFBPgVXfBRocRRxw-41" value="&lt;font color=&quot;#666666&quot; face=&quot;Tahoma&quot; style=&quot;font-size: 11px; background-color: rgb(245, 241, 230);&quot;&gt;Python Operator&lt;/font&gt;" style="text;html=1;strokeColor=none;fillColor=none;align=center;verticalAlign=middle;whiteSpace=wrap;rounded=0;" vertex="1" parent="1">
          <mxGeometry x="1022" y="275" width="114" height="30" as="geometry" />
        </mxCell>
        <mxCell id="pp0nRFBPgVXfBRocRRxw-55" style="edgeStyle=orthogonalEdgeStyle;rounded=0;orthogonalLoop=1;jettySize=auto;html=1;entryX=0;entryY=0.5;entryDx=0;entryDy=0;" edge="1" parent="1" source="pp0nRFBPgVXfBRocRRxw-47" target="pp0nRFBPgVXfBRocRRxw-37">
          <mxGeometry relative="1" as="geometry" />
        </mxCell>
        <mxCell id="pp0nRFBPgVXfBRocRRxw-47" value="" style="rounded=1;whiteSpace=wrap;html=1;strokeColor=#6c8ebf;fillColor=#dae8fc;" vertex="1" parent="1">
          <mxGeometry x="702" y="222" width="200" height="90" as="geometry" />
        </mxCell>
        <mxCell id="pp0nRFBPgVXfBRocRRxw-48" value="&lt;font color=&quot;#4d4d4d&quot; style=&quot;font-size: 14px;&quot;&gt;Process_Data&lt;/font&gt;" style="text;html=1;strokeColor=none;fillColor=none;align=center;verticalAlign=middle;whiteSpace=wrap;rounded=0;" vertex="1" parent="1">
          <mxGeometry x="772" y="231" width="60" height="30" as="geometry" />
        </mxCell>
        <mxCell id="pp0nRFBPgVXfBRocRRxw-49" value="" style="rounded=1;whiteSpace=wrap;html=1;strokeColor=none;fillColor=#009485;arcSize=50;" vertex="1" parent="1">
          <mxGeometry x="758" y="263" width="10" height="10" as="geometry" />
        </mxCell>
        <mxCell id="pp0nRFBPgVXfBRocRRxw-50" value="&lt;font style=&quot;font-size: 12px;&quot;&gt;&lt;i&gt;Success&lt;/i&gt;&lt;/font&gt;" style="text;html=1;strokeColor=none;fillColor=none;align=center;verticalAlign=middle;whiteSpace=wrap;rounded=0;" vertex="1" parent="1">
          <mxGeometry x="768" y="255" width="60" height="30" as="geometry" />
        </mxCell>
        <mxCell id="pp0nRFBPgVXfBRocRRxw-51" value="&lt;font color=&quot;#666666&quot; face=&quot;Tahoma&quot; style=&quot;font-size: 11px; background-color: rgb(245, 241, 230);&quot;&gt;Python Operator&lt;/font&gt;" style="text;html=1;strokeColor=none;fillColor=none;align=center;verticalAlign=middle;whiteSpace=wrap;rounded=0;" vertex="1" parent="1">
          <mxGeometry x="744" y="276" width="114" height="30" as="geometry" />
        </mxCell>
        <mxCell id="pp0nRFBPgVXfBRocRRxw-68" value="&lt;b&gt;&lt;font style=&quot;font-size: 11px;&quot; face=&quot;Lucida Console&quot; data-font-src=&quot;https://fonts.googleapis.com/css?family=Architects+Daughter&quot;&gt;X_COM&amp;nbsp;&lt;/font&gt;&lt;/b&gt;" style="text;html=1;strokeColor=none;fillColor=none;align=center;verticalAlign=middle;whiteSpace=wrap;rounded=0;" vertex="1" parent="1">
          <mxGeometry x="630" y="242" width="60" height="30" as="geometry" />
        </mxCell>
        <mxCell id="pp0nRFBPgVXfBRocRRxw-69" value="&lt;b&gt;&lt;font style=&quot;font-size: 11px;&quot; face=&quot;Lucida Console&quot; data-font-src=&quot;https://fonts.googleapis.com/css?family=Architects+Daughter&quot;&gt;X_COM&amp;nbsp;&lt;/font&gt;&lt;/b&gt;" style="text;html=1;strokeColor=none;fillColor=none;align=center;verticalAlign=middle;whiteSpace=wrap;rounded=0;" vertex="1" parent="1">
          <mxGeometry x="910" y="243" width="60" height="30" as="geometry" />
        </mxCell>
      </root>
    </mxGraphModel>
  </diagram>
</mxfile>
